<svg xmlns="http://www.w3.org/2000/svg" viewBox="0 0 630.3 523.7"><defs><style>.cls-1{isolation:isolate;}.cls-2{fill:#f0f0fa;}.cls-3{fill:#00a5d8;}.cls-39,.cls-4{fill:#292f3a;}.cls-14,.cls-5{fill:#191d23;}.cls-5{opacity:0.55;}.cls-6{fill:#f45a16;}.cls-7{fill:#027396;}.cls-8{fill:#e3e3e3;}.cls-9{fill:#0081b4;}.cls-10{fill:#fff;}.cls-11,.cls-17,.cls-29,.cls-38{fill:none;}.cls-11{stroke:#c4c4c4;}.cls-11,.cls-17{stroke-miterlimit:10;}.cls-12{fill:#141414;opacity:0.08;}.cls-13{fill:#fa504f;}.cls-14{opacity:0.21;}.cls-15{fill:#292f38;}.cls-16,.cls-22{fill:#3a4150;}.cls-17{stroke:#ffbd00;stroke-width:2px;}.cls-18{fill:#ffbd00;}.cls-19,.cls-24{fill:#ff8b00;}.cls-20{fill:#ffd05a;}.cls-21{fill:#ffdc8d;}.cls-22{opacity:0.14;mix-blend-mode:color-burn;}.cls-23{fill:#555e6d;opacity:0.7;}.cls-24{opacity:0.8;}.cls-25{fill:#d6d6d6;}.cls-26{fill:#c4c4c4;}.cls-27{fill:#b2b2b2;}.cls-28{fill:#ef3a3a;}.cls-29{stroke:#e3e3e3;stroke-linecap:round;stroke-linejoin:round;stroke-width:3px;}.cls-30{fill:#ea3f3f;}.cls-31,.cls-34{fill:#ffbe00;}.cls-32{fill:#ffe33b;}.cls-33{fill:#ffb000;}.cls-34{opacity:0.42;mix-blend-mode:multiply;}.cls-35{fill:#fcc9ac;}.cls-36{fill:#384250;}.cls-37{fill:#ffeb5a;opacity:0.34;}.cls-39{font-size:76px;font-family:Centaur, Centaur;}</style></defs><title>Ativo 8</title><g class="cls-1"><g id="Camada_2" data-name="Camada 2"><g id="Camada_1-2" data-name="Camada 1"><path class="cls-2" d="M270.76,390.64C198.06,416,118.29,377.5,92.92,304.8S106.06,152.34,178.76,127s152.47,13.14,177.83,85.83S343.45,365.27,270.76,390.64Z"/><path class="cls-3" d="M167.25,94A174.54,174.54,0,1,0,389.55,201.3,174.54,174.54,0,0,0,167.25,94Zm103.5,296.62C198.06,416,118.29,377.5,92.92,304.8S106.06,152.34,178.76,127s152.47,13.14,177.83,85.83S343.45,365.27,270.76,390.64Z"/><path class="cls-3" d="M604,407.16,437.11,326.28A198.31,198.31,0,0,1,412.83,377l166.68,80.8A28.12,28.12,0,0,0,604,407.16Z"/><path class="cls-4" d="M608.72,399.25,441.88,318.37a10,10,0,0,0-14,6c-1.69,5.37-3.64,10.65-5.79,15.83l-25.48-12.3a183.81,183.81,0,0,0,2.77-128.81c-33.53-96.09-139-147-235.08-113.46s-147,139-113.46,235.08,139,147,235.08,113.46a183.88,183.88,0,0,0,102.27-88l25.22,12.17c-2.65,4.85-5.5,9.6-8.57,14.22a10,10,0,0,0,4,14.6L575.54,468a38.15,38.15,0,0,0,33.18-68.72ZM69.84,314.12C40,228.48,85.32,134.5,171,104.62s179.62,15.48,209.51,101.12S365,385.36,279.34,415.24,99.72,399.76,69.84,314.12ZM608.41,441.46a18.08,18.08,0,0,1-24.12,8.43L427.69,374a208.49,208.49,0,0,0,15.61-32.61l156.69,76a18.08,18.08,0,0,1,8.42,24.14Z"/><path class="cls-5" d="M143.33,228.49c0,.08,0,.16,0,.24v-.24Z"/><polygon class="cls-6" points="83.72 282.76 233.66 335.71 382.63 252.46 253.71 200.39 83.72 282.76"/><path class="cls-7" d="M234,372.48,84.4,315.3c-7.5-2.87-9.69-11.79-9-19,.36-3.69,1.17-7.33,3.35-10.4A14.89,14.89,0,0,1,87,280a12.77,12.77,0,0,1,8.36.74l132.27,58.72Z"/><polygon class="cls-7" points="83.72 314.14 233.66 373.35 382.63 287.39 382.63 278.81 253.71 236.6 83.72 314.14"/><polygon class="cls-8" points="233.1 368.95 382.63 283.22 382.63 250.94 233.1 334.21 233.1 368.95"/><polygon class="cls-7" points="83.72 281.26 233.09 334.25 382.63 250.96 382.68 247.23 253.71 198.89 83.72 281.26"/><path class="cls-9" d="M76.45,290.47s.79-2.33,4.61-6.08a18.15,18.15,0,0,1,17.22-4.49l134.83,50.4,149.51-83.11L253.16,195,89.71,274.25a38.57,38.57,0,0,0-8.44,7C76.91,286.57,76.45,290.47,76.45,290.47Z"/><path class="cls-10" d="M233.1,369,90.13,312a14.82,14.82,0,0,1-9.34-13.77h0a14.82,14.82,0,0,1,20-13.87L233.1,334.21Z"/><line class="cls-11" x1="97" y1="286.98" x2="227.66" y2="337.79"/><line class="cls-11" x1="89.78" y1="290.38" x2="227.66" y2="343.78"/><line class="cls-11" x1="87.06" y1="295.29" x2="227.66" y2="349.77"/><line class="cls-11" x1="85.97" y1="300.32" x2="227.66" y2="355.76"/><line class="cls-11" x1="87.87" y1="307.27" x2="227.66" y2="361.75"/><polygon class="cls-12" points="207.74 359.14 196.04 345.94 184.34 352.17 184.34 339.25 184.34 315.57 207.74 324.41 207.74 339.25 207.74 359.14"/><polygon class="cls-13" points="206.37 355.05 194.68 341.86 182.98 348.08 182.98 335.17 182.98 315.28 206.37 324.11 206.37 335.17 206.37 355.05"/><line class="cls-11" x1="236.14" y1="337.9" x2="376.91" y2="260.84"/><line class="cls-11" x1="236.54" y1="343.07" x2="377.32" y2="266.01"/><line class="cls-11" x1="236.95" y1="348.25" x2="377.73" y2="271.19"/><line class="cls-11" x1="237.36" y1="353.42" x2="378.14" y2="276.36"/><line class="cls-11" x1="237.77" y1="358.59" x2="378.54" y2="281.53"/><path class="cls-5" d="M143.32,229c0-.07,0-.16,0-.24v.52C143.32,229.16,143.32,229.07,143.32,229Z"/><rect class="cls-5" x="143.33" y="171.75" width="154.73" height="21.79"/><path class="cls-14" d="M302,265.73c0,18.69-34.79,36.09-77.71,36.09a152.92,152.92,0,0,1-24.78-2,112.68,112.68,0,0,1-31.58-9.74c-13.23-6.61-21.34-15.33-21.34-24.36,0-.16,0-.31,0-.47h0V208.51l154.73-10.7v63.46A15.16,15.16,0,0,1,302,265.73Z"/><path class="cls-4" d="M298.74,250.75c0,18.69-34.79,36.09-77.71,36.09a152.92,152.92,0,0,1-24.78-2,112.68,112.68,0,0,1-31.58-9.74c-13.23-6.61-21.34-15.33-21.34-24.36,0-.16,0-.31,0-.47h0V193.53H298.06v52.75A15.16,15.16,0,0,1,298.74,250.75Z"/><path class="cls-5" d="M298.74,250.75c0,18.69-34.79,36.09-77.71,36.09a152.92,152.92,0,0,1-24.78-2,112.68,112.68,0,0,1-31.58-9.74c-13.23-6.61-21.34-15.33-21.34-24.36,0-.16,0-.31,0-.47h0V233.61c0,6.84,8.25,19.17,21.34,25.71a112.68,112.68,0,0,0,31.58,9.74,152.92,152.92,0,0,0,24.78,2c39.42,0,72-20.67,77-37.56v12.79A15.16,15.16,0,0,1,298.74,250.75Z"/><path class="cls-5" d="M298.06,189.65v18.57L230.9,239.7a24,24,0,0,1-15.18.63l-40.4-14-7.72-2.68-24.28-8.41V189.65Z"/><path class="cls-15" d="M337.65,185.13,230.9,232.55a24,24,0,0,1-15.18.63l-40.4-14-7.72-2.68L91.92,190.27c-4.25-1.48-5.06-5.07-.84-6.61l124.38-43.92c4.22-1.54,11-1.58,15-.11l7.29,2.68h0L337.45,179C341.67,180.54,341.76,183.31,337.65,185.13Z"/><path class="cls-16" d="M337.65,183.49,230.9,230.92a24,24,0,0,1-15.18.63l-40.4-14-7.72-2.68L91.92,188.64c-4.25-1.48-4.26-3.94,0-5.47l123.58-45.06c4.22-1.54,11-1.58,15-.11l7.29,2.68h0l99.72,36.69C341.67,178.91,341.76,181.67,337.65,183.49Z"/><path class="cls-17" d="M219.39,178.88c-22.72,3.26-45.46,6.52-67.93,11.23-7.16,1.5-14.59,3.29-20.17,8s-8.58,11.87-9.7,19.06-.52,14.54.09,21.8"/><path class="cls-18" d="M128.16,264.75c0,14.79-3.52,18.31-7.87,18.31a5.71,5.71,0,0,1-3.19-.87c-2.76-1.74-4.68-6.51-4.68-17.45a81.39,81.39,0,0,1,1-13.33l2.47-16,.09-.75h8.56l.08.75,2.54,16.49h0A82.19,82.19,0,0,1,128.16,264.75Z"/><ellipse class="cls-18" cx="218" cy="179.96" rx="7.25" ry="4.92"/><path class="cls-19" d="M225.24,180c0,2.72-3.24,4.92-7.25,4.92a8.26,8.26,0,0,1-6.28-2.48,9.17,9.17,0,0,0,4.92,1.32c4,0,7.25-2.21,7.25-4.93a3.74,3.74,0,0,0-1-2.44A4.38,4.38,0,0,1,225.24,180Z"/><ellipse class="cls-20" cx="216.93" cy="178.59" rx="4.4" ry="3.29"/><ellipse class="cls-21" cx="216.18" cy="177.64" rx="2.26" ry="1.69"/><path class="cls-22" d="M345.12,180.18l-7.47,3.32L230.9,230.92a24,24,0,0,1-15.18.63l-40.4-14c4.58-.14,40.43-1.51,56.27-6.88,10-3.39,19.83-8.34,26.7-16.38s10.24-19.65,6.43-29.51c-3.28-8.46-11.05-14.26-18.77-19-2.74-1.7-5.51-3.32-8.23-5.07l99.72,36.69Z"/><path class="cls-23" d="M209.74,153.8l-75.49,27.25c-3,1.07-5.92.43-6.6-1.44h0c-.67-1.87,1.19-4.25,4.16-5.32l74.35-26.68c3-1.07,7.06-1,7.73.87h0C214.57,150.35,212.71,152.73,209.74,153.8Z"/><path class="cls-24" d="M128.16,264.75c0,14.79-3.52,18.31-7.87,18.31a5.71,5.71,0,0,1-3.19-.87c.47-.51,1-1,1.49-1.48a16,16,0,0,0,4.25-9.23,47.36,47.36,0,0,0,0-10.32l-1.32-17.26c-.21-2.82-.52-5.64-.65-8.47a4.92,4.92,0,0,1,0-.78h3.72l.08.75,2.54,16.49h0A82.19,82.19,0,0,1,128.16,264.75Z"/><circle class="cls-18" cx="120.29" cy="230.11" r="7.31"/><path class="cls-24" d="M127.6,230.12A7.31,7.31,0,0,1,114.11,234a7.23,7.23,0,0,0,4.08,1.25,7.31,7.31,0,0,0,6.18-11.22A7.3,7.3,0,0,1,127.6,230.12Z"/><ellipse class="cls-20" cx="118.27" cy="228.43" rx="3.74" ry="3.14" transform="matrix(0.61, -0.79, 0.79, 0.61, -134.9, 182.87)"/><path class="cls-20" d="M114.69,258.08a47.86,47.86,0,0,0,1.2,12,1.4,1.4,0,0,0,2.71,0,26.21,26.21,0,0,0,.65-6.23,117.69,117.69,0,0,0-.81-20.08,2.52,2.52,0,0,0-.85-1.58c-2.41-2-2.27,5.08-2.34,6C115,251.47,114.73,254.77,114.69,258.08Z"/><path class="cls-8" d="M351.73,237.83c-.28,7.62-2.24,9.72-2.24,9.72-19.78,7.24-112.22,64.3-112.22,64.3.86-6.39.33-11.25-1-14.94-5.19-14-22.59-11.09-23.28-11C269.21,266.15,323,220.82,323,220.82c15.46-6.26,25.72,2.65,28.15,12.16A17.15,17.15,0,0,1,351.73,237.83Z"/><path class="cls-14" d="M351.8,253.41s2-2.1,2.24-9.72a17.15,17.15,0,0,0-.55-4.86c-3.23,1.34-11.93,6.78-13.17,7.44l-14.63,7.87L273.46,282.2,247.2,296.33a37.42,37.42,0,0,0-6,3.55A21.58,21.58,0,0,0,231,297.46c-8.95,0-16.2,4.85-16.2,10.82S222,319.11,231,319.11a21.79,21.79,0,0,0,9.71-2.17V317l.51-.31a15.69,15.69,0,0,0,1.42-.87C255.81,307.69,333.72,260,351.8,253.41Z"/><path class="cls-25" d="M351.73,237.83c-.28,7.62-2.24,9.72-2.24,9.72-19.78,7.24-112.22,64.3-112.22,64.3.86-6.39.33-11.25-1-14.94.12-.19.25-.37.38-.56,2.09-3,5.06-4.17,8.26-5.88l26.26-14.12,52.23-28.07L338,240.41c1.24-.66,9.94-6.1,13.17-7.44A17.15,17.15,0,0,1,351.73,237.83Z"/><path class="cls-26" d="M244.5,300c0,8.77-9.66,15.86-21.57,15.86s-21.58-7.1-21.58-15.86,9.66-15.86,21.58-15.86a28.17,28.17,0,0,1,9.3,1.54c7.13,2.52,12.11,7.83,12.26,14C244.5,299.79,244.5,299.89,244.5,300Z"/><path class="cls-27" d="M229.33,307.81l3.55-8.72-2.73-5-9.39-3,11.48-5.39c7.13,2.52,12.11,7.83,12.26,14Z"/><path class="cls-28" d="M265.61,260.75s18.52,1.53,17,23.62L294,277.79s-.88-21.37-18.18-23.16Z"/><polygon class="cls-27" points="221.65 296.93 228.58 293.24 232.12 297.53 223 302.77 223.34 299.1 221.65 296.93"/><path class="cls-29" d="M231.27,284.16a27,27,0,0,0-15.22,1.6,20,20,0,0,0-8.05,5.4,9.49,9.49,0,0,0,2.69,15.19,19.76,19.76,0,0,0,7.76,2.17,18.26,18.26,0,0,0,8.42-.82,9.19,9.19,0,0,0,5.7-5.92,7.81,7.81,0,0,0-1.33-6.49,9,9,0,0,0-5.73-3.43,7.64,7.64,0,0,0-5.72,1.2,5.4,5.4,0,0,0-2.21,5.24,4.2,4.2,0,0,0,4.32,3.36,2.77,2.77,0,0,0,1.8-.88,1.88,1.88,0,0,0,.36-1.92,1.43,1.43,0,0,0-1.68-.82"/><ellipse class="cls-30" cx="277.52" cy="261.36" rx="13.34" ry="7.82"/><ellipse class="cls-13" cx="277.52" cy="260.24" rx="13.34" ry="7.82"/><ellipse class="cls-31" cx="277.25" cy="259.42" rx="7.67" ry="4.49"/><ellipse class="cls-32" cx="275.81" cy="258.44" rx="4.52" ry="2.47"/><path class="cls-33" d="M284.92,259.42c0,2.48-3.43,4.49-7.67,4.49a10.23,10.23,0,0,1-6.1-1.77,11.67,11.67,0,0,0,3.86.62c4.24,0,7.67-2,7.67-4.49a3.53,3.53,0,0,0-1.56-2.73C283.4,256.32,284.92,257.76,284.92,259.42Z"/><path class="cls-31" d="M327.42,275.56a4.39,4.39,0,0,1-.67.3l-1,.53L275.64,304l-.24-.43-2-3.63-5.85-10.61-.31-.57,49.58-27.32,1.86-1h0c2.69-1.56,6.82.57,9.23,4.75a13.37,13.37,0,0,1,1.27,3C330.09,271.38,329.47,274.37,327.42,275.56Z"/><path class="cls-34" d="M327.42,275.56a4.39,4.39,0,0,1-.67.3l-1,.53L275.64,304l-.24-.43-2-3.63,2.86-3.41,52.93-28.37C330.09,271.38,329.47,274.37,327.42,275.56Z"/><path class="cls-35" d="M275.65,304h0l-3.63.38-8.66.89-2.24.23-1.26.13-1.86.19a.83.83,0,0,1-.78-1.28l1.09-1.72.6-.94,1.09-1.72,4.64-7.3,2.61-4.11c2.68-1.07,6.48,1,8.75,5S278.18,302.38,275.65,304Z"/><path class="cls-36" d="M263.35,305.29l-2.24.23-1.26.13-1.86.19a.83.83,0,0,1-.78-1.28l1.09-1.72.6-.94,1.09-1.72C261.94,300.63,263,302.4,263.35,305.29Z"/><path class="cls-37" d="M293.57,276.73c5.19-2.9,10.42-5.83,16.09-7.59.77-.24,1.75-.4,2.27.23a1.42,1.42,0,0,1,.05,1.53,3.83,3.83,0,0,1-1.11,1.16,62.75,62.75,0,0,1-7.79,4.89c-3.4,1.91-6.81,3.82-10.3,5.56A73,73,0,0,1,281.84,287a21,21,0,0,1-2.65.92.63.63,0,0,1-.57-.11c-.48-.52.3-2,.59-2.42a5.06,5.06,0,0,1,1.93-1.79c1.76-.92,3.49-1.88,5.22-2.86l2.85-1.61Z"/><path class="cls-38" d="M56.29,164.35c0-2.76,153.41-5,343-5"/><text class="cls-39" transform="matrix(0.53, -0.85, 0.85, 0.53, 53.64, 163.16)"> </text><text class="cls-39" transform="matrix(0.6, -0.8, 0.8, 0.6, 62.93, 148.25)"> </text><text class="cls-39" transform="translate(73.48 134.2) rotate(-48)"> </text><text class="cls-39" transform="matrix(0.73, -0.68, 0.68, 0.73, 85.19, 121.12)"> </text><text class="cls-39" transform="matrix(0.79, -0.62, 0.62, 0.79, 98, 109.1)"> </text><text class="cls-39" transform="translate(111.81 98.25) rotate(-32.96)"> </text><text class="cls-39" transform="translate(126.5 88.67) rotate(-27.86)"> </text><text class="cls-39" transform="translate(141.27 80.1) rotate(-20.32)">S</text><text class="cls-39" transform="translate(172.97 68.52) rotate(-11.31)">e</text><text class="cls-39" transform="translate(198.49 63.26) rotate(-3.15)">a</text><text class="cls-39" transform="matrix(1, 0.08, -0.08, 1, 225.32, 61.83)">r</text><text class="cls-39" transform="translate(246.48 63.18) rotate(11.81)">c</text><text class="cls-39" transform="translate(271.15 67.81) rotate(20.56)">h</text><text class="cls-39" transform="translate(103.58 460.03) rotate(35.96)"> </text><text class="cls-39" transform="matrix(0.87, 0.49, -0.49, 0.87, 121.72, 472.93)"> </text><text class="cls-39" transform="translate(142.79 485.26) rotate(19.27)">F</text><text class="cls-39" transform="matrix(0.99, 0.14, -0.14, 0.99, 183.66, 498.58)">a</text><text class="cls-39" transform="translate(217.69 502.79) rotate(-2.41)">c</text><text class="cls-39" transform="translate(252.62 500.98) rotate(-13.87)">u</text><text class="cls-39" transform="translate(291.24 490.29) rotate(-23.35)">l</text></g></g></g></svg>