<svg xmlns="http://www.w3.org/2000/svg" viewBox="0 0 307.39 236.43"><defs><style>.cls-1{isolation:isolate;}.cls-11,.cls-2{fill:#191d23;}.cls-2{opacity:0.55;}.cls-3{fill:#f45a16;}.cls-4{fill:#027396;}.cls-5{fill:#e3e3e3;}.cls-6{fill:#0081b4;}.cls-7{fill:#fff;}.cls-15,.cls-27,.cls-8{fill:none;}.cls-8{stroke:#c4c4c4;}.cls-15,.cls-8{stroke-miterlimit:10;}.cls-9{fill:#141414;opacity:0.08;}.cls-10{fill:#fa504f;}.cls-11{opacity:0.21;}.cls-12{fill:#292f3a;}.cls-13{fill:#292f38;}.cls-14,.cls-20{fill:#3a4150;}.cls-15{stroke:#ffbd00;stroke-width:2px;}.cls-16{fill:#ffbd00;}.cls-17,.cls-22{fill:#ff8b00;}.cls-18{fill:#ffd05a;}.cls-19{fill:#ffdc8d;}.cls-20{opacity:0.14;mix-blend-mode:color-burn;}.cls-21{fill:#555e6d;opacity:0.7;}.cls-22{opacity:0.8;}.cls-23{fill:#d6d6d6;}.cls-24{fill:#c4c4c4;}.cls-25{fill:#b2b2b2;}.cls-26{fill:#ef3a3a;}.cls-27{stroke:#e3e3e3;stroke-linecap:round;stroke-linejoin:round;stroke-width:3px;}.cls-28{fill:#ea3f3f;}.cls-29,.cls-32{fill:#ffbe00;}.cls-30{fill:#ffe33b;}.cls-31{fill:#ffb000;}.cls-32{opacity:0.42;mix-blend-mode:multiply;}.cls-33{fill:#fcc9ac;}.cls-34{fill:#384250;}.cls-35{fill:#ffeb5a;opacity:0.34;}</style></defs><title>Ativo 6</title><g class="cls-1"><g id="Camada_2" data-name="Camada 2"><g id="Camada_1-2" data-name="Camada 1"><path class="cls-2" d="M68,91.57c0,.08,0,.16,0,.24v-.24Z"/><polygon class="cls-3" points="8.44 145.84 158.38 198.79 307.34 115.53 178.42 63.46 8.44 145.84"/><path class="cls-4" d="M158.67,235.56,9.12,178.38c-7.5-2.87-9.69-11.79-9-19C.48,155.69,1.3,152,3.47,149A14.89,14.89,0,0,1,11.75,143a12.77,12.77,0,0,1,8.36.74L152.37,202.5Z"/><polygon class="cls-4" points="8.44 177.22 158.38 236.43 307.34 150.47 307.34 141.89 178.42 99.68 8.44 177.22"/><polygon class="cls-5" points="157.82 232.03 307.34 146.3 307.34 114.01 157.82 197.29 157.82 232.03"/><polygon class="cls-4" points="8.44 144.34 157.81 197.33 307.34 114.03 307.39 110.3 178.42 61.97 8.44 144.34"/><path class="cls-6" d="M1.17,153.55s.79-2.33,4.61-6.08A18.15,18.15,0,0,1,23,143l134.83,50.4,149.51-83.11L177.88,58.05,14.43,137.33a38.57,38.57,0,0,0-8.44,7C1.63,149.65,1.17,153.55,1.17,153.55Z"/><path class="cls-7" d="M157.82,232l-143-56.91a14.82,14.82,0,0,1-9.34-13.77h0a14.82,14.82,0,0,1,20-13.87l132.27,49.81Z"/><line class="cls-8" x1="21.71" y1="150.06" x2="152.37" y2="200.87"/><line class="cls-8" x1="14.49" y1="153.46" x2="152.37" y2="206.86"/><line class="cls-8" x1="11.77" y1="158.36" x2="152.37" y2="212.85"/><line class="cls-8" x1="10.68" y1="163.4" x2="152.37" y2="218.84"/><line class="cls-8" x1="12.59" y1="170.34" x2="152.37" y2="224.83"/><polygon class="cls-9" points="132.45 222.22 120.75 209.02 109.06 215.25 109.06 202.33 109.06 178.65 132.45 187.48 132.45 202.33 132.45 222.22"/><polygon class="cls-10" points="131.09 218.13 119.39 204.94 107.7 211.16 107.7 198.24 107.7 178.36 131.09 187.19 131.09 198.24 131.09 218.13"/><line class="cls-8" x1="160.85" y1="200.98" x2="301.63" y2="123.92"/><line class="cls-8" x1="161.26" y1="206.15" x2="302.03" y2="129.09"/><line class="cls-8" x1="161.67" y1="211.32" x2="302.44" y2="134.26"/><line class="cls-8" x1="162.08" y1="216.5" x2="302.85" y2="139.44"/><line class="cls-8" x1="162.48" y1="221.67" x2="303.26" y2="144.61"/><path class="cls-2" d="M68,92c0-.07,0-.16,0-.24v.52C68,92.23,68,92.14,68,92Z"/><rect class="cls-2" x="68.04" y="34.82" width="154.73" height="21.79"/><path class="cls-11" d="M226.72,128.81c0,18.69-34.79,36.09-77.71,36.09a152.92,152.92,0,0,1-24.78-2,112.68,112.68,0,0,1-31.58-9.74c-13.23-6.61-21.34-15.33-21.34-24.36,0-.16,0-.31,0-.47h0V71.59L226,60.88v63.46A15.16,15.16,0,0,1,226.72,128.81Z"/><path class="cls-12" d="M223.45,113.83c0,18.69-34.79,36.09-77.71,36.09a152.92,152.92,0,0,1-24.78-2,112.68,112.68,0,0,1-31.58-9.74C76.15,131.58,68,122.86,68,113.83c0-.16,0-.31,0-.47h0V56.61H222.77v52.75A15.16,15.16,0,0,1,223.45,113.83Z"/><path class="cls-2" d="M223.45,113.83c0,18.69-34.79,36.09-77.71,36.09a152.92,152.92,0,0,1-24.78-2,112.68,112.68,0,0,1-31.58-9.74C76.15,131.58,68,122.86,68,113.83c0-.16,0-.31,0-.47h0V96.69c0,6.84,8.25,19.17,21.34,25.71A112.68,112.68,0,0,0,121,132.14a152.92,152.92,0,0,0,24.78,2c39.42,0,72-20.67,77-37.56v12.79A15.16,15.16,0,0,1,223.45,113.83Z"/><path class="cls-2" d="M222.77,52.73V71.3l-67.16,31.48a24,24,0,0,1-15.18.63l-40.4-14-7.72-2.68L68,78.31V52.73Z"/><path class="cls-13" d="M262.37,48.2,155.62,95.63a24,24,0,0,1-15.18.63l-40.4-14-7.72-2.68L16.64,53.35c-4.25-1.48-5.06-5.07-.84-6.61L140.18,2.82c4.22-1.54,11-1.58,15-.11l7.29,2.68h0l99.72,36.69C266.39,43.62,266.48,46.38,262.37,48.2Z"/><path class="cls-14" d="M262.37,46.57,155.62,94a24,24,0,0,1-15.18.63l-40.4-14-7.72-2.68L16.64,51.72c-4.25-1.48-4.26-3.94,0-5.47L140.18,1.19c4.22-1.54,11-1.58,15-.11l7.29,2.68h0l99.72,36.69C266.39,42,266.48,44.75,262.37,46.57Z"/><path class="cls-15" d="M144.11,42c-22.72,3.26-45.46,6.52-67.93,11.23-7.16,1.5-14.59,3.29-20.17,8s-8.58,11.87-9.7,19.06-.52,14.54.09,21.8"/><path class="cls-16" d="M52.87,127.83c0,14.79-3.52,18.31-7.87,18.31a5.71,5.71,0,0,1-3.19-.87c-2.76-1.74-4.68-6.51-4.68-17.45a81.39,81.39,0,0,1,1-13.33l2.47-16,.09-.75H49.3l.08.75L51.92,115h0A82.19,82.19,0,0,1,52.87,127.83Z"/><ellipse class="cls-16" cx="142.71" cy="43.04" rx="7.25" ry="4.92"/><path class="cls-17" d="M150,43c0,2.72-3.24,4.92-7.25,4.92a8.26,8.26,0,0,1-6.28-2.48,9.17,9.17,0,0,0,4.92,1.32c4,0,7.25-2.21,7.25-4.93a3.74,3.74,0,0,0-1-2.44A4.38,4.38,0,0,1,150,43Z"/><ellipse class="cls-18" cx="141.65" cy="41.67" rx="4.4" ry="3.29"/><ellipse class="cls-19" cx="140.9" cy="40.71" rx="2.26" ry="1.69"/><path class="cls-20" d="M269.83,43.25l-7.47,3.32L155.62,94a24,24,0,0,1-15.18.63l-40.4-14c4.58-.14,40.43-1.51,56.27-6.88,10-3.39,19.83-8.34,26.7-16.38s10.24-19.65,6.43-29.51c-3.28-8.46-11.05-14.26-18.77-19-2.74-1.7-5.51-3.32-8.23-5.07l99.72,36.69Z"/><path class="cls-21" d="M134.45,16.88,59,44.13c-3,1.07-5.92.43-6.6-1.44h0c-.67-1.87,1.19-4.25,4.16-5.32l74.35-26.68c3-1.07,7.06-1,7.73.87h0C139.28,13.42,137.42,15.81,134.45,16.88Z"/><path class="cls-22" d="M52.87,127.83c0,14.79-3.52,18.31-7.87,18.31a5.71,5.71,0,0,1-3.19-.87c.47-.51,1-1,1.49-1.48a16,16,0,0,0,4.25-9.23,47.36,47.36,0,0,0,0-10.32L46.21,107c-.21-2.82-.52-5.64-.65-8.47a4.92,4.92,0,0,1,0-.78H49.3l.08.75L51.92,115h0A82.19,82.19,0,0,1,52.87,127.83Z"/><circle class="cls-16" cx="45" cy="93.19" r="7.31"/><path class="cls-22" d="M52.32,93.2a7.31,7.31,0,0,1-13.49,3.91,7.23,7.23,0,0,0,4.08,1.25,7.31,7.31,0,0,0,6.18-11.22A7.3,7.3,0,0,1,52.32,93.2Z"/><ellipse class="cls-18" cx="42.98" cy="91.51" rx="3.74" ry="3.14" transform="matrix(0.61, -0.79, 0.79, 0.61, -55.75, 69.77)"/><path class="cls-18" d="M39.4,121.16a47.86,47.86,0,0,0,1.2,12,1.4,1.4,0,0,0,2.71,0,26.21,26.21,0,0,0,.65-6.23,117.69,117.69,0,0,0-.81-20.08,2.52,2.52,0,0,0-.85-1.58c-2.41-2-2.27,5.08-2.34,6C39.7,114.55,39.44,117.85,39.4,121.16Z"/><path class="cls-5" d="M276.44,100.91c-.28,7.62-2.24,9.72-2.24,9.72C254.43,117.87,162,174.93,162,174.93c.86-6.39.33-11.25-1-14.94-5.19-14-22.59-11.09-23.28-11,56.24-19.78,110.07-65.11,110.07-65.11,15.46-6.26,25.72,2.65,28.15,12.16A17.15,17.15,0,0,1,276.44,100.91Z"/><path class="cls-11" d="M276.52,116.48s2-2.1,2.24-9.72a17.15,17.15,0,0,0-.55-4.86c-3.23,1.34-11.93,6.78-13.17,7.44l-14.63,7.87-52.23,28.07L171.92,159.4a37.42,37.42,0,0,0-6,3.55,21.58,21.58,0,0,0-10.19-2.41c-8.95,0-16.2,4.85-16.2,10.82s7.25,10.82,16.2,10.82a21.79,21.79,0,0,0,9.71-2.17v.06l.51-.31a15.69,15.69,0,0,0,1.42-.87C180.52,170.77,258.44,123.1,276.52,116.48Z"/><path class="cls-23" d="M276.44,100.91c-.28,7.62-2.24,9.72-2.24,9.72C254.43,117.87,162,174.93,162,174.93c.86-6.39.33-11.25-1-14.94.12-.19.25-.37.38-.56,2.09-3,5.06-4.17,8.26-5.88l26.26-14.12,52.23-28.07,14.63-7.87c1.24-.66,9.94-6.1,13.17-7.44A17.15,17.15,0,0,1,276.44,100.91Z"/><path class="cls-24" d="M169.21,163.07c0,8.77-9.66,15.86-21.57,15.86s-21.58-7.1-21.58-15.86,9.66-15.86,21.58-15.86a28.17,28.17,0,0,1,9.3,1.54c7.13,2.52,12.11,7.83,12.26,14C169.21,162.87,169.21,163,169.21,163.07Z"/><path class="cls-25" d="M154,170.89l3.55-8.72-2.73-5-9.39-3,11.48-5.39c7.13,2.52,12.11,7.83,12.26,14Z"/><path class="cls-26" d="M190.33,123.83s18.52,1.53,17,23.62l11.35-6.59s-.88-21.37-18.18-23.16Z"/><polygon class="cls-25" points="146.37 160 153.29 156.32 156.84 160.61 147.71 165.85 148.05 162.17 146.37 160"/><path class="cls-27" d="M156,147.23a27,27,0,0,0-15.22,1.6,20,20,0,0,0-8.05,5.4,9.49,9.49,0,0,0,2.69,15.19,19.76,19.76,0,0,0,7.76,2.17,18.26,18.26,0,0,0,8.42-.82,9.19,9.19,0,0,0,5.7-5.92,7.81,7.81,0,0,0-1.33-6.49,9,9,0,0,0-5.73-3.43,7.64,7.64,0,0,0-5.72,1.2,5.4,5.4,0,0,0-2.21,5.24,4.2,4.2,0,0,0,4.32,3.36,2.77,2.77,0,0,0,1.8-.88,1.88,1.88,0,0,0,.36-1.92,1.43,1.43,0,0,0-1.68-.82"/><ellipse class="cls-28" cx="202.24" cy="124.44" rx="13.34" ry="7.82"/><ellipse class="cls-10" cx="202.24" cy="123.32" rx="13.34" ry="7.82"/><ellipse class="cls-29" cx="201.97" cy="122.5" rx="7.67" ry="4.49"/><ellipse class="cls-30" cx="200.53" cy="121.52" rx="4.52" ry="2.47"/><path class="cls-31" d="M209.64,122.5c0,2.48-3.43,4.49-7.67,4.49a10.23,10.23,0,0,1-6.1-1.77,11.67,11.67,0,0,0,3.86.62c4.24,0,7.67-2,7.67-4.49a3.53,3.53,0,0,0-1.56-2.73C208.11,119.39,209.64,120.84,209.64,122.5Z"/><path class="cls-29" d="M252.14,138.63a4.39,4.39,0,0,1-.67.3l-1,.53-50.12,27.62-.24-.43-2-3.63-5.85-10.61-.31-.57,49.58-27.32,1.86-1h0c2.69-1.56,6.82.57,9.23,4.75a13.37,13.37,0,0,1,1.27,3C254.8,134.46,254.19,137.45,252.14,138.63Z"/><path class="cls-32" d="M252.14,138.63a4.39,4.39,0,0,1-.67.3l-1,.53-50.12,27.62-.24-.43-2-3.63,2.86-3.41,52.93-28.37C254.8,134.46,254.19,137.45,252.14,138.63Z"/><path class="cls-33" d="M200.37,167.1h0l-3.63.38-8.66.89-2.24.23-1.26.13-1.86.19a.83.83,0,0,1-.78-1.28l1.09-1.72.6-.94,1.09-1.72,4.64-7.3,2.61-4.11c2.68-1.07,6.48,1,8.75,5S202.9,165.45,200.37,167.1Z"/><path class="cls-34" d="M188.06,168.36l-2.24.23-1.26.13-1.86.19a.83.83,0,0,1-.78-1.28l1.09-1.72.6-.94,1.09-1.72C186.66,163.71,187.71,165.48,188.06,168.36Z"/><path class="cls-35" d="M218.28,139.81c5.19-2.9,10.42-5.83,16.09-7.59.77-.24,1.75-.4,2.27.23a1.42,1.42,0,0,1,.05,1.53,3.83,3.83,0,0,1-1.11,1.16A62.75,62.75,0,0,1,227.8,140c-3.4,1.91-6.81,3.82-10.3,5.56a73,73,0,0,1-10.95,4.52,21,21,0,0,1-2.65.92.63.63,0,0,1-.57-.11c-.48-.52.3-2,.59-2.42a5.06,5.06,0,0,1,1.93-1.79c1.76-.92,3.49-1.88,5.22-2.86l2.85-1.61Z"/></g></g></g></svg>