<svg xmlns="http://www.w3.org/2000/svg" viewBox="0 0 611.01 369.1"><defs><style>.cls-1{isolation:isolate;}.cls-2{fill:#f0f0fa;}.cls-3{fill:#00a5d8;}.cls-4{fill:#292f3a;}.cls-14,.cls-5{fill:#191d23;}.cls-5{opacity:0.55;}.cls-6{fill:#f45a16;}.cls-7{fill:#027396;}.cls-8{fill:#e3e3e3;}.cls-9{fill:#0081b4;}.cls-10{fill:#fff;}.cls-11,.cls-17,.cls-29,.cls-38{fill:none;}.cls-11{stroke:#c4c4c4;}.cls-11,.cls-17{stroke-miterlimit:10;}.cls-12{fill:#141414;opacity:0.08;}.cls-13{fill:#fa504f;}.cls-14{opacity:0.21;}.cls-15{fill:#292f38;}.cls-16,.cls-22{fill:#3a4150;}.cls-17{stroke:#ffbd00;stroke-width:2px;}.cls-18{fill:#ffbd00;}.cls-19,.cls-24{fill:#ff8b00;}.cls-20{fill:#ffd05a;}.cls-21{fill:#ffdc8d;}.cls-22{opacity:0.14;mix-blend-mode:color-burn;}.cls-23{fill:#555e6d;opacity:0.7;}.cls-24{opacity:0.8;}.cls-25{fill:#d6d6d6;}.cls-26{fill:#c4c4c4;}.cls-27{fill:#b2b2b2;}.cls-28{fill:#ef3a3a;}.cls-29{stroke:#e3e3e3;stroke-linecap:round;stroke-linejoin:round;stroke-width:3px;}.cls-30{fill:#ea3f3f;}.cls-31,.cls-34{fill:#ffbe00;}.cls-32{fill:#ffe33b;}.cls-33{fill:#ffb000;}.cls-34{opacity:0.42;mix-blend-mode:multiply;}.cls-35{fill:#fcc9ac;}.cls-36{fill:#384250;}.cls-37{fill:#ffeb5a;opacity:0.34;}.cls-39,.cls-40{font-size:42px;}.cls-39{font-family:MyriadPro-Regular, Myriad Pro;}.cls-40{font-family:Centaur, Centaur;}</style></defs><title>Ativo 9</title><g class="cls-1"><g id="Camada_2" data-name="Camada 2"><g id="Camada_1-2" data-name="Camada 1"><path class="cls-2" d="M248.37,307.4C180,342.89,95.59,316.19,60.1,247.86S51.31,95.08,119.64,59.59s152.78-8.78,188.27,59.54S316.69,271.91,248.37,307.4Z"/><path class="cls-3" d="M103.54,28.61A174.54,174.54,0,1,0,338.89,103,174.54,174.54,0,0,0,103.54,28.61ZM248.37,307.4C180,342.89,95.59,316.19,60.1,247.86S51.31,95.08,119.64,59.59s152.78-8.78,188.27,59.54S316.69,271.91,248.37,307.4Z"/><path class="cls-3" d="M580.51,276.14,403.82,219.93A198.31,198.31,0,0,1,387,273.6l176.52,56.15a28.12,28.12,0,0,0,17-53.61Z"/><path class="cls-4" d="M584.1,267.63,407.41,211.42a10,10,0,0,0-13,8c-.9,5.56-2.08,11.06-3.47,16.5l-27-8.53A183.81,183.81,0,0,0,348.34,99.46C301.43,9.15,189.78-26.16,99.46,20.76S-26.16,179.32,20.76,269.64s158.57,125.62,248.88,78.7A183.88,183.88,0,0,0,358.28,246.6L385,255c-1.93,5.18-4.07,10.29-6.45,15.29a10,10,0,0,0,6,13.89l176.53,56.16a38.15,38.15,0,0,0,23-72.75ZM38.58,260.38c-41.81-80.49-10.35-180,70.14-221.81s180-10.35,221.81,70.14,10.35,180-70.14,221.81S80.39,340.87,38.58,260.38Zm551.24,49.07a18.08,18.08,0,0,1-22.67,11.79L401.31,268.49A208.49,208.49,0,0,0,412.1,234L578,286.77a18.08,18.08,0,0,1,11.78,22.68Z"/><path class="cls-5" d="M103.79,160.79c0,.08,0,.16,0,.24v-.24Z"/><polygon class="cls-6" points="44.18 215.06 194.12 268.01 343.08 184.75 214.16 132.68 44.18 215.06"/><path class="cls-7" d="M194.41,304.78,44.86,247.6c-7.5-2.87-9.69-11.79-9-19,.36-3.69,1.17-7.33,3.35-10.4a14.89,14.89,0,0,1,8.28-5.93,12.77,12.77,0,0,1,8.36.74l132.27,58.72Z"/><polygon class="cls-7" points="44.18 246.44 194.12 305.65 343.08 219.69 343.08 211.11 214.16 168.9 44.18 246.44"/><polygon class="cls-8" points="193.56 301.25 343.08 215.52 343.08 183.23 193.56 266.51 193.56 301.25"/><polygon class="cls-7" points="44.18 213.56 193.55 266.55 343.08 183.26 343.13 179.52 214.16 131.19 44.18 213.56"/><path class="cls-9" d="M36.91,222.77s.79-2.33,4.61-6.08a18.15,18.15,0,0,1,17.22-4.49l134.83,50.4,149.51-83.11L213.62,127.27,50.17,206.55a38.57,38.57,0,0,0-8.44,7C37.37,218.87,36.91,222.77,36.91,222.77Z"/><path class="cls-10" d="M193.56,301.25l-143-56.91a14.82,14.82,0,0,1-9.34-13.77h0a14.82,14.82,0,0,1,20-13.87l132.27,49.81Z"/><line class="cls-11" x1="57.45" y1="219.28" x2="188.11" y2="270.09"/><line class="cls-11" x1="50.24" y1="222.68" x2="188.11" y2="276.08"/><line class="cls-11" x1="47.51" y1="227.58" x2="188.11" y2="282.07"/><line class="cls-11" x1="46.42" y1="232.62" x2="188.11" y2="288.06"/><line class="cls-11" x1="48.33" y1="239.56" x2="188.11" y2="294.05"/><polygon class="cls-12" points="168.19 291.44 156.5 278.24 144.8 284.47 144.8 271.55 144.8 247.87 168.19 256.7 168.19 271.55 168.19 291.44"/><polygon class="cls-13" points="166.83 287.35 155.13 274.16 143.44 280.38 143.44 267.46 143.44 247.58 166.83 256.41 166.83 267.46 166.83 287.35"/><line class="cls-11" x1="196.59" y1="270.2" x2="337.37" y2="193.14"/><line class="cls-11" x1="197" y1="275.37" x2="337.77" y2="198.31"/><line class="cls-11" x1="197.41" y1="280.54" x2="338.18" y2="203.49"/><line class="cls-11" x1="197.82" y1="285.72" x2="338.59" y2="208.66"/><line class="cls-11" x1="198.23" y1="290.89" x2="339" y2="213.83"/><path class="cls-5" d="M103.77,161.27c0-.07,0-.16,0-.24v.52C103.77,161.45,103.77,161.36,103.77,161.27Z"/><rect class="cls-5" x="103.78" y="104.05" width="154.73" height="21.79"/><path class="cls-14" d="M262.46,198c0,18.69-34.79,36.09-77.71,36.09a152.92,152.92,0,0,1-24.78-2,112.68,112.68,0,0,1-31.58-9.74C115.16,215.78,107,207.06,107,198c0-.16,0-.31,0-.47h0V140.81l154.73-10.7v63.46A15.16,15.16,0,0,1,262.46,198Z"/><path class="cls-4" d="M259.19,183.05c0,18.69-34.79,36.09-77.71,36.09a152.92,152.92,0,0,1-24.78-2,112.68,112.68,0,0,1-31.58-9.74c-13.23-6.61-21.34-15.33-21.34-24.36,0-.16,0-.31,0-.47h0V125.83H258.51v52.75A15.16,15.16,0,0,1,259.19,183.05Z"/><path class="cls-5" d="M259.19,183.05c0,18.69-34.79,36.09-77.71,36.09a152.92,152.92,0,0,1-24.78-2,112.68,112.68,0,0,1-31.58-9.74c-13.23-6.61-21.34-15.33-21.34-24.36,0-.16,0-.31,0-.47h0V165.91c0,6.84,8.25,19.17,21.34,25.71a112.68,112.68,0,0,0,31.58,9.74,152.92,152.92,0,0,0,24.78,2c39.42,0,72-20.67,77-37.56v12.79A15.16,15.16,0,0,1,259.19,183.05Z"/><path class="cls-5" d="M258.51,122v18.57L191.36,172a24,24,0,0,1-15.18.63l-40.4-14-7.72-2.68-24.28-8.41V122Z"/><path class="cls-15" d="M298.11,117.43,191.36,164.85a24,24,0,0,1-15.18.63l-40.4-14-7.72-2.68L52.38,122.57c-4.25-1.48-5.06-5.07-.84-6.61L175.92,72c4.22-1.54,11-1.58,15-.11l7.29,2.68h0l99.72,36.69C302.13,112.84,302.22,115.6,298.11,117.43Z"/><path class="cls-16" d="M298.11,115.79,191.36,163.22a24,24,0,0,1-15.18.63l-40.4-14-7.72-2.68L52.38,120.94c-4.25-1.48-4.26-3.94,0-5.47L175.92,70.41c4.22-1.54,11-1.58,15-.11L198.18,73h0l99.72,36.69C302.13,111.21,302.22,114,298.11,115.79Z"/><path class="cls-17" d="M179.85,111.18c-22.72,3.26-45.46,6.52-67.93,11.23-7.16,1.5-14.59,3.29-20.17,8s-8.58,11.87-9.7,19.06-.52,14.54.09,21.8"/><path class="cls-18" d="M88.61,197.05c0,14.79-3.52,18.31-7.87,18.31a5.71,5.71,0,0,1-3.19-.87c-2.76-1.74-4.68-6.51-4.68-17.45a81.39,81.39,0,0,1,1-13.33l2.47-16,.09-.75H85l.08.75,2.54,16.49h0A82.19,82.19,0,0,1,88.61,197.05Z"/><ellipse class="cls-18" cx="178.45" cy="112.26" rx="7.25" ry="4.92"/><path class="cls-19" d="M185.7,112.26c0,2.72-3.24,4.92-7.25,4.92a8.26,8.26,0,0,1-6.28-2.48,9.17,9.17,0,0,0,4.92,1.32c4,0,7.25-2.21,7.25-4.93a3.74,3.74,0,0,0-1-2.44A4.38,4.38,0,0,1,185.7,112.26Z"/><ellipse class="cls-20" cx="177.39" cy="110.89" rx="4.4" ry="3.29"/><ellipse class="cls-21" cx="176.64" cy="109.93" rx="2.26" ry="1.69"/><path class="cls-22" d="M305.57,112.48l-7.47,3.32L191.36,163.22a24,24,0,0,1-15.18.63l-40.4-14c4.58-.14,40.43-1.51,56.27-6.88,10-3.39,19.83-8.34,26.7-16.38s10.24-19.65,6.43-29.51c-3.28-8.46-11.05-14.26-18.77-19-2.74-1.7-5.51-3.32-8.23-5.07l99.72,36.69Z"/><path class="cls-23" d="M170.19,86.1,94.7,113.35c-3,1.07-5.92.43-6.6-1.44h0c-.67-1.87,1.19-4.25,4.16-5.32l74.35-26.68c3-1.07,7.06-1,7.73.87h0C175,82.65,173.16,85,170.19,86.1Z"/><path class="cls-24" d="M88.61,197.05c0,14.79-3.52,18.31-7.87,18.31a5.71,5.71,0,0,1-3.19-.87c.47-.51,1-1,1.49-1.48a16,16,0,0,0,4.25-9.23,47.36,47.36,0,0,0,0-10.32l-1.32-17.26c-.21-2.82-.52-5.64-.65-8.47a4.92,4.92,0,0,1,0-.78H85l.08.75,2.54,16.49h0A82.19,82.19,0,0,1,88.61,197.05Z"/><circle class="cls-18" cx="80.75" cy="162.41" r="7.31"/><path class="cls-24" d="M88.06,162.42a7.31,7.31,0,0,1-13.49,3.91,7.23,7.23,0,0,0,4.08,1.25,7.31,7.31,0,0,0,6.18-11.22A7.3,7.3,0,0,1,88.06,162.42Z"/><ellipse class="cls-20" cx="78.72" cy="160.73" rx="3.74" ry="3.14" transform="matrix(0.61, -0.79, 0.79, 0.61, -96.67, 125.11)"/><path class="cls-20" d="M75.14,190.38a47.86,47.86,0,0,0,1.2,12,1.4,1.4,0,0,0,2.71,0,26.21,26.21,0,0,0,.65-6.23,117.69,117.69,0,0,0-.81-20.08,2.52,2.52,0,0,0-.85-1.58c-2.41-2-2.27,5.08-2.34,6C75.44,183.77,75.18,187.07,75.14,190.38Z"/><path class="cls-8" d="M312.18,170.13c-.28,7.62-2.24,9.72-2.24,9.72-19.78,7.24-112.22,64.3-112.22,64.3.86-6.39.33-11.25-1-14.94-5.19-14-22.59-11.09-23.28-11,56.24-19.78,110.07-65.11,110.07-65.11,15.46-6.26,25.72,2.65,28.15,12.16A17.15,17.15,0,0,1,312.18,170.13Z"/><path class="cls-14" d="M312.26,185.7s2-2.1,2.24-9.72a17.15,17.15,0,0,0-.55-4.86c-3.23,1.34-11.93,6.78-13.17,7.44l-14.63,7.87L233.92,214.5l-26.26,14.12a37.42,37.42,0,0,0-6,3.55,21.58,21.58,0,0,0-10.19-2.41c-8.95,0-16.2,4.85-16.2,10.82s7.25,10.82,16.2,10.82a21.79,21.79,0,0,0,9.71-2.17v.06l.51-.31a15.69,15.69,0,0,0,1.42-.87C216.26,240,294.18,192.32,312.26,185.7Z"/><path class="cls-25" d="M312.18,170.13c-.28,7.62-2.24,9.72-2.24,9.72-19.78,7.24-112.22,64.3-112.22,64.3.86-6.39.33-11.25-1-14.94.12-.19.25-.37.38-.56,2.09-3,5.06-4.17,8.26-5.88l26.26-14.12,52.23-28.07,14.63-7.87c1.24-.66,9.94-6.1,13.17-7.44A17.15,17.15,0,0,1,312.18,170.13Z"/><path class="cls-26" d="M205,232.29c0,8.77-9.66,15.86-21.57,15.86s-21.58-7.1-21.58-15.86,9.66-15.86,21.58-15.86a28.17,28.17,0,0,1,9.3,1.54c7.13,2.52,12.11,7.83,12.26,14C205,232.09,205,232.19,205,232.29Z"/><path class="cls-27" d="M189.78,240.11l3.55-8.72-2.73-5-9.39-3L192.68,218c7.13,2.52,12.11,7.83,12.26,14Z"/><path class="cls-28" d="M226.07,193.05s18.52,1.53,17,23.62l11.35-6.59s-.88-21.37-18.18-23.16Z"/><polygon class="cls-27" points="182.11 229.23 189.04 225.54 192.58 229.83 183.45 235.07 183.79 231.4 182.11 229.23"/><path class="cls-29" d="M191.72,216.45a27,27,0,0,0-15.22,1.6,20,20,0,0,0-8.05,5.4,9.49,9.49,0,0,0,2.69,15.19,19.76,19.76,0,0,0,7.76,2.17,18.26,18.26,0,0,0,8.42-.82,9.19,9.19,0,0,0,5.7-5.92,7.81,7.81,0,0,0-1.33-6.49,9,9,0,0,0-5.73-3.43,7.64,7.64,0,0,0-5.72,1.2,5.4,5.4,0,0,0-2.21,5.24,4.2,4.2,0,0,0,4.32,3.36,2.77,2.77,0,0,0,1.8-.88,1.88,1.88,0,0,0,.36-1.92,1.43,1.43,0,0,0-1.68-.82"/><ellipse class="cls-30" cx="237.98" cy="193.66" rx="13.34" ry="7.82"/><ellipse class="cls-13" cx="237.98" cy="192.54" rx="13.34" ry="7.82"/><ellipse class="cls-31" cx="237.71" cy="191.72" rx="7.67" ry="4.49"/><ellipse class="cls-32" cx="236.27" cy="190.74" rx="4.52" ry="2.47"/><path class="cls-33" d="M245.38,191.72c0,2.48-3.43,4.49-7.67,4.49a10.23,10.23,0,0,1-6.1-1.77,11.67,11.67,0,0,0,3.86.62c4.24,0,7.67-2,7.67-4.49a3.53,3.53,0,0,0-1.56-2.73C243.85,188.62,245.38,190.06,245.38,191.72Z"/><path class="cls-31" d="M287.88,207.86a4.39,4.39,0,0,1-.67.3l-1,.53L236.1,236.31l-.24-.43-2-3.63L228,221.63l-.31-.57,49.58-27.32,1.86-1h0c2.69-1.56,6.82.57,9.23,4.75a13.37,13.37,0,0,1,1.27,3C290.54,203.68,289.93,206.67,287.88,207.86Z"/><path class="cls-34" d="M287.88,207.86a4.39,4.39,0,0,1-.67.3l-1,.53L236.1,236.31l-.24-.43-2-3.63,2.86-3.41,52.93-28.37C290.54,203.68,289.93,206.67,287.88,207.86Z"/><path class="cls-35" d="M236.11,236.32h0l-3.63.38-8.66.89-2.24.23-1.26.13-1.86.19a.83.83,0,0,1-.78-1.28l1.09-1.72.6-.94,1.09-1.72,4.64-7.3,2.61-4.11c2.68-1.07,6.48,1,8.75,5S238.64,234.67,236.11,236.32Z"/><path class="cls-36" d="M223.8,237.58l-2.24.23-1.26.13-1.86.19a.83.83,0,0,1-.78-1.28l1.09-1.72.6-.94,1.09-1.72C222.4,232.93,223.45,234.7,223.8,237.58Z"/><path class="cls-37" d="M254,209c5.19-2.9,10.42-5.83,16.09-7.59.77-.24,1.75-.4,2.27.23a1.42,1.42,0,0,1,.05,1.53,3.83,3.83,0,0,1-1.11,1.16,62.75,62.75,0,0,1-7.79,4.89c-3.4,1.91-6.81,3.82-10.3,5.56a73,73,0,0,1-10.95,4.52,21,21,0,0,1-2.65.92.63.63,0,0,1-.57-.11c-.48-.52.3-2,.59-2.42a5.06,5.06,0,0,1,1.93-1.79c1.76-.92,3.49-1.88,5.22-2.86l2.85-1.61Z"/><path class="cls-38" d="M16.74,96.65c0-2.76,153.41-5,343-5"/><text class="cls-39" transform="translate(419.27 207.46) rotate(18.27)">S</text><text class="cls-40" transform="translate(438.94 213.95) rotate(18.27)">e</text><text class="cls-40" transform="translate(453.5 218.76) rotate(18.27)">a</text><text class="cls-40" transform="translate(468.46 223.69) rotate(18.27)">r</text><text class="cls-40" transform="translate(480.38 227.63) rotate(18.27)">c</text><text class="cls-40" transform="translate(494.5 232.29) rotate(18.27)">h</text><text class="cls-40" transform="matrix(0.95, 0.31, -0.31, 0.95, 513.23, 238.47)"> </text><text class="cls-40" transform="translate(523 241.69) rotate(18.27)">F</text><text class="cls-40" transform="translate(542.22 248.04) rotate(18.27)">a</text><text class="cls-40" transform="translate(557.17 252.97) rotate(18.27)">c</text><text class="cls-40" transform="matrix(0.95, 0.31, -0.31, 0.95, 572.14, 257.91)">u</text><text class="cls-40" transform="translate(590.4 263.94) rotate(18.27)">l</text></g></g></g></svg>