<svg xmlns="http://www.w3.org/2000/svg" viewBox="0 0 589.74 396.44"><defs><style>.cls-1{isolation:isolate;}.cls-2{fill:#f0f0fa;}.cls-3{fill:#00a5d8;}.cls-4{fill:#292f3a;}.cls-14,.cls-5{fill:#191d23;}.cls-5{opacity:0.55;}.cls-6{fill:#f45a16;}.cls-7{fill:#027396;}.cls-8{fill:#e3e3e3;}.cls-9{fill:#0081b4;}.cls-10{fill:#fff;}.cls-11,.cls-17,.cls-29{fill:none;}.cls-11{stroke:#c4c4c4;}.cls-11,.cls-17{stroke-miterlimit:10;}.cls-12{fill:#141414;opacity:0.08;}.cls-13{fill:#fa504f;}.cls-14{opacity:0.21;}.cls-15{fill:#292f38;}.cls-16,.cls-22{fill:#3a4150;}.cls-17{stroke:#ffbd00;stroke-width:2px;}.cls-18{fill:#ffbd00;}.cls-19,.cls-24{fill:#ff8b00;}.cls-20{fill:#ffd05a;}.cls-21{fill:#ffdc8d;}.cls-22{opacity:0.14;mix-blend-mode:color-burn;}.cls-23{fill:#555e6d;opacity:0.7;}.cls-24{opacity:0.8;}.cls-25{fill:#d6d6d6;}.cls-26{fill:#c4c4c4;}.cls-27{fill:#b2b2b2;}.cls-28{fill:#ef3a3a;}.cls-29{stroke:#e3e3e3;stroke-linecap:round;stroke-linejoin:round;stroke-width:3px;}.cls-30{fill:#ea3f3f;}.cls-31,.cls-34{fill:#ffbe00;}.cls-32{fill:#ffe33b;}.cls-33{fill:#ffb000;}.cls-34{opacity:0.42;mix-blend-mode:multiply;}.cls-35{fill:#fcc9ac;}.cls-36{fill:#384250;}.cls-37{fill:#ffeb5a;opacity:0.34;}</style></defs><title>Ativo 2</title><g class="cls-1"><g id="Camada_2" data-name="Camada 2"><g id="Camada_1-2" data-name="Camada 1"><path class="cls-2" d="M230.2,315.3C157.5,340.66,77.73,302.16,52.36,229.46S65.5,77,138.2,51.63,290.66,64.77,316,137.46,302.89,289.93,230.2,315.3Z"/><path class="cls-3" d="M126.69,18.67A174.54,174.54,0,1,0,349,126,174.54,174.54,0,0,0,126.69,18.67ZM230.2,315.3C157.5,340.66,77.73,302.16,52.36,229.46S65.5,77,138.2,51.63,290.66,64.77,316,137.46,302.89,289.93,230.2,315.3Z"/><path class="cls-3" d="M563.39,331.82,396.55,250.94a198.31,198.31,0,0,1-24.27,50.72L539,382.46a28.12,28.12,0,1,0,24.44-50.64Z"/><path class="cls-4" d="M568.16,323.91,401.32,243a10,10,0,0,0-14,6c-1.69,5.37-3.64,10.65-5.79,15.83l-25.48-12.3a183.81,183.81,0,0,0,2.77-128.81c-33.53-96.09-139-147-235.08-113.46s-147,139-113.46,235.08,139,147,235.08,113.46a183.88,183.88,0,0,0,102.27-88L372.89,283c-2.65,4.85-5.5,9.6-8.57,14.22a10,10,0,0,0,4,14.6L535,392.63a38.15,38.15,0,0,0,33.18-68.72ZM29.28,238.78C-.61,153.14,44.75,59.16,130.39,29.27S310,44.75,339.9,130.39,324.42,310,238.78,339.9,59.16,324.42,29.28,238.78ZM567.85,366.12a18.08,18.08,0,0,1-24.12,8.43l-156.6-75.91A208.49,208.49,0,0,0,402.74,266l156.69,76a18.08,18.08,0,0,1,8.42,24.14Z"/><path class="cls-5" d="M102.77,153.15c0,.08,0,.16,0,.24v-.24Z"/><polygon class="cls-6" points="43.16 207.42 193.1 260.37 342.07 177.12 213.15 125.05 43.16 207.42"/><path class="cls-7" d="M193.4,297.14,43.84,240c-7.5-2.87-9.69-11.79-9-19,.36-3.69,1.17-7.33,3.35-10.4a14.89,14.89,0,0,1,8.28-5.93,12.77,12.77,0,0,1,8.36.74L187.1,264.08Z"/><polygon class="cls-7" points="43.16 238.8 193.1 298.01 342.07 212.05 342.07 203.47 213.15 161.26 43.16 238.8"/><polygon class="cls-8" points="192.54 293.61 342.07 207.88 342.07 175.59 192.54 258.87 192.54 293.61"/><polygon class="cls-7" points="43.16 205.92 192.53 258.91 342.07 175.62 342.12 171.88 213.15 123.55 43.16 205.92"/><path class="cls-9" d="M35.89,215.13s.79-2.33,4.61-6.08a18.15,18.15,0,0,1,17.22-4.49L192.56,255l149.51-83.11L212.6,119.63,49.15,198.91a38.57,38.57,0,0,0-8.44,7C36.35,211.23,35.89,215.13,35.89,215.13Z"/><path class="cls-10" d="M192.54,293.61l-143-56.91a14.82,14.82,0,0,1-9.34-13.77h0a14.82,14.82,0,0,1,20-13.87l132.27,49.81Z"/><line class="cls-11" x1="56.44" y1="211.64" x2="187.1" y2="262.45"/><line class="cls-11" x1="49.22" y1="215.04" x2="187.1" y2="268.44"/><line class="cls-11" x1="46.5" y1="219.94" x2="187.1" y2="274.43"/><line class="cls-11" x1="45.41" y1="224.98" x2="187.1" y2="280.42"/><line class="cls-11" x1="47.31" y1="231.93" x2="187.1" y2="286.41"/><polygon class="cls-12" points="167.17 283.8 155.48 270.6 143.78 276.83 143.78 263.91 143.78 240.23 167.17 249.07 167.17 263.91 167.17 283.8"/><polygon class="cls-13" points="165.81 279.71 154.12 266.52 142.42 272.74 142.42 259.82 142.42 239.94 165.81 248.77 165.81 259.82 165.81 279.71"/><line class="cls-11" x1="195.58" y1="262.56" x2="336.35" y2="185.5"/><line class="cls-11" x1="195.98" y1="267.73" x2="336.76" y2="190.67"/><line class="cls-11" x1="196.39" y1="272.91" x2="337.17" y2="195.85"/><line class="cls-11" x1="196.8" y1="278.08" x2="337.58" y2="201.02"/><line class="cls-11" x1="197.21" y1="283.25" x2="337.98" y2="206.19"/><path class="cls-5" d="M102.76,153.63c0-.07,0-.16,0-.24v.52C102.76,153.82,102.76,153.73,102.76,153.63Z"/><rect class="cls-5" x="102.77" y="96.41" width="154.73" height="21.79"/><path class="cls-14" d="M261.44,190.39c0,18.69-34.79,36.09-77.71,36.09a152.92,152.92,0,0,1-24.78-2,112.68,112.68,0,0,1-31.58-9.74C114.14,208.14,106,199.42,106,190.39c0-.16,0-.31,0-.47h0V133.17l154.73-10.7v63.46A15.16,15.16,0,0,1,261.44,190.39Z"/><path class="cls-4" d="M258.18,175.41c0,18.69-34.79,36.09-77.71,36.09a152.92,152.92,0,0,1-24.78-2,112.68,112.68,0,0,1-31.58-9.74c-13.23-6.61-21.34-15.33-21.34-24.36,0-.16,0-.31,0-.47h0V118.19H257.5v52.75A15.16,15.16,0,0,1,258.18,175.41Z"/><path class="cls-5" d="M258.18,175.41c0,18.69-34.79,36.09-77.71,36.09a152.92,152.92,0,0,1-24.78-2,112.68,112.68,0,0,1-31.58-9.74c-13.23-6.61-21.34-15.33-21.34-24.36,0-.16,0-.31,0-.47h0V158.27c0,6.84,8.25,19.17,21.34,25.71a112.68,112.68,0,0,0,31.58,9.74,152.92,152.92,0,0,0,24.78,2c39.42,0,72-20.67,77-37.56v12.79A15.16,15.16,0,0,1,258.18,175.41Z"/><path class="cls-5" d="M257.5,114.31v18.57l-67.16,31.48a24,24,0,0,1-15.18.63l-40.4-14L127,148.31l-24.28-8.41V114.31Z"/><path class="cls-15" d="M297.09,109.79,190.34,157.21a24,24,0,0,1-15.18.63l-40.4-14L127,141.16,51.36,114.93c-4.25-1.48-5.06-5.07-.84-6.61L174.9,64.4c4.22-1.54,11-1.58,15-.11L197.16,67h0l99.72,36.69C301.11,105.2,301.2,108,297.09,109.79Z"/><path class="cls-16" d="M297.09,108.15,190.34,155.58a24,24,0,0,1-15.18.63l-40.4-14L127,139.53,51.36,113.3c-4.25-1.48-4.26-3.94,0-5.47L174.9,62.77c4.22-1.54,11-1.58,15-.11l7.29,2.68h0L296.89,102C301.11,103.57,301.2,106.33,297.09,108.15Z"/><path class="cls-17" d="M178.83,103.54c-22.72,3.26-45.46,6.52-67.93,11.23-7.16,1.5-14.59,3.29-20.17,8s-8.58,11.87-9.7,19.06-.52,14.54.09,21.8"/><path class="cls-18" d="M87.6,189.41c0,14.79-3.52,18.31-7.87,18.31a5.71,5.71,0,0,1-3.19-.87c-2.76-1.74-4.68-6.51-4.68-17.45a81.39,81.39,0,0,1,1-13.33l2.47-16,.09-.75H84l.08.75,2.54,16.49h0A82.19,82.19,0,0,1,87.6,189.41Z"/><ellipse class="cls-18" cx="177.44" cy="104.62" rx="7.25" ry="4.92"/><path class="cls-19" d="M184.68,104.62c0,2.72-3.24,4.92-7.25,4.92a8.26,8.26,0,0,1-6.28-2.48,9.17,9.17,0,0,0,4.92,1.32c4,0,7.25-2.21,7.25-4.93a3.74,3.74,0,0,0-1-2.44A4.38,4.38,0,0,1,184.68,104.62Z"/><ellipse class="cls-20" cx="176.37" cy="103.25" rx="4.4" ry="3.29"/><ellipse class="cls-21" cx="175.62" cy="102.3" rx="2.26" ry="1.69"/><path class="cls-22" d="M304.56,104.84l-7.47,3.32L190.34,155.58a24,24,0,0,1-15.18.63l-40.4-14c4.58-.14,40.43-1.51,56.27-6.88,10-3.39,19.83-8.34,26.7-16.38S228,99.31,224.17,89.45c-3.28-8.46-11.05-14.26-18.77-19-2.74-1.7-5.51-3.32-8.23-5.07L296.89,102Z"/><path class="cls-23" d="M169.17,78.46,93.69,105.71c-3,1.07-5.92.43-6.6-1.44h0c-.67-1.87,1.19-4.25,4.16-5.32L165.6,72.27c3-1.07,7.06-1,7.73.87h0C174,75,172.14,77.39,169.17,78.46Z"/><path class="cls-24" d="M87.6,189.41c0,14.79-3.52,18.31-7.87,18.31a5.71,5.71,0,0,1-3.19-.87c.47-.51,1-1,1.49-1.48a16,16,0,0,0,4.25-9.23,47.36,47.36,0,0,0,0-10.32l-1.32-17.26c-.21-2.82-.52-5.64-.65-8.47a4.92,4.92,0,0,1,0-.78H84l.08.75,2.54,16.49h0A82.19,82.19,0,0,1,87.6,189.41Z"/><circle class="cls-18" cx="79.73" cy="154.77" r="7.31"/><path class="cls-24" d="M87,154.78a7.31,7.31,0,0,1-13.49,3.91,7.23,7.23,0,0,0,4.08,1.25,7.31,7.31,0,0,0,6.18-11.22A7.3,7.3,0,0,1,87,154.78Z"/><ellipse class="cls-20" cx="77.71" cy="153.09" rx="3.74" ry="3.14" transform="matrix(0.61, -0.79, 0.79, 0.61, -91.01, 121.32)"/><path class="cls-20" d="M74.13,182.74a47.86,47.86,0,0,0,1.2,12,1.4,1.4,0,0,0,2.71,0,26.21,26.21,0,0,0,.65-6.23,117.69,117.69,0,0,0-.81-20.08,2.52,2.52,0,0,0-.85-1.58c-2.41-2-2.27,5.08-2.34,6C74.43,176.13,74.17,179.43,74.13,182.74Z"/><path class="cls-8" d="M311.17,162.49c-.28,7.62-2.24,9.72-2.24,9.72-19.78,7.24-112.22,64.3-112.22,64.3.86-6.39.33-11.25-1-14.94-5.19-14-22.59-11.09-23.28-11,56.24-19.78,110.07-65.11,110.07-65.11,15.46-6.26,25.72,2.65,28.15,12.16A17.15,17.15,0,0,1,311.17,162.49Z"/><path class="cls-14" d="M311.24,178.07s2-2.1,2.24-9.72a17.15,17.15,0,0,0-.55-4.86c-3.23,1.34-11.93,6.78-13.17,7.44l-14.63,7.87L232.9,206.86,206.64,221a37.42,37.42,0,0,0-6,3.55,21.58,21.58,0,0,0-10.19-2.41c-8.95,0-16.2,4.85-16.2,10.82s7.25,10.82,16.2,10.82a21.79,21.79,0,0,0,9.71-2.17v.06l.51-.31a15.69,15.69,0,0,0,1.42-.87C215.25,232.35,293.16,184.68,311.24,178.07Z"/><path class="cls-25" d="M311.17,162.49c-.28,7.62-2.24,9.72-2.24,9.72-19.78,7.24-112.22,64.3-112.22,64.3.86-6.39.33-11.25-1-14.94.12-.19.25-.37.38-.56,2.09-3,5.06-4.17,8.26-5.88L230.59,201l52.23-28.07,14.63-7.87c1.24-.66,9.94-6.1,13.17-7.44A17.15,17.15,0,0,1,311.17,162.49Z"/><path class="cls-26" d="M203.94,224.66c0,8.77-9.66,15.86-21.57,15.86s-21.58-7.1-21.58-15.86,9.66-15.86,21.58-15.86a28.17,28.17,0,0,1,9.3,1.54c7.13,2.52,12.11,7.83,12.26,14C203.94,224.45,203.94,224.55,203.94,224.66Z"/><path class="cls-27" d="M188.77,232.47l3.55-8.72-2.73-5-9.39-3,11.48-5.39c7.13,2.52,12.11,7.83,12.26,14Z"/><path class="cls-28" d="M225.05,185.41s18.52,1.53,17,23.62l11.35-6.59s-.88-21.37-18.18-23.16Z"/><polygon class="cls-27" points="181.09 221.59 188.02 217.9 191.56 222.19 182.44 227.43 182.78 223.76 181.09 221.59"/><path class="cls-29" d="M190.71,208.81a27,27,0,0,0-15.22,1.6,20,20,0,0,0-8.05,5.4A9.49,9.49,0,0,0,170.12,231a19.76,19.76,0,0,0,7.76,2.17,18.26,18.26,0,0,0,8.42-.82,9.19,9.19,0,0,0,5.7-5.92,7.81,7.81,0,0,0-1.33-6.49,9,9,0,0,0-5.73-3.43,7.64,7.64,0,0,0-5.72,1.2,5.4,5.4,0,0,0-2.21,5.24,4.2,4.2,0,0,0,4.32,3.36,2.77,2.77,0,0,0,1.8-.88,1.88,1.88,0,0,0,.36-1.92,1.43,1.43,0,0,0-1.68-.82"/><ellipse class="cls-30" cx="236.96" cy="186.02" rx="13.34" ry="7.82"/><ellipse class="cls-13" cx="236.96" cy="184.9" rx="13.34" ry="7.82"/><ellipse class="cls-31" cx="236.69" cy="184.08" rx="7.67" ry="4.49"/><ellipse class="cls-32" cx="235.25" cy="183.1" rx="4.52" ry="2.47"/><path class="cls-33" d="M244.36,184.08c0,2.48-3.43,4.49-7.67,4.49a10.23,10.23,0,0,1-6.1-1.77,11.67,11.67,0,0,0,3.86.62c4.24,0,7.67-2,7.67-4.49a3.53,3.53,0,0,0-1.56-2.73C242.83,181,244.36,182.42,244.36,184.08Z"/><path class="cls-31" d="M286.86,200.22a4.39,4.39,0,0,1-.67.3l-1,.53-50.12,27.62-.24-.43-2-3.63L227,214l-.31-.57,49.58-27.32,1.86-1h0c2.69-1.56,6.82.57,9.23,4.75a13.37,13.37,0,0,1,1.27,3C289.53,196,288.91,199,286.86,200.22Z"/><path class="cls-34" d="M286.86,200.22a4.39,4.39,0,0,1-.67.3l-1,.53-50.12,27.62-.24-.43-2-3.63,2.86-3.41,52.93-28.37C289.53,196,288.91,199,286.86,200.22Z"/><path class="cls-35" d="M235.09,228.68h0l-3.63.38-8.66.89-2.24.23-1.26.13-1.86.19a.83.83,0,0,1-.78-1.28l1.09-1.72.6-.94,1.09-1.72,4.64-7.3,2.61-4.11c2.68-1.07,6.48,1,8.75,5S237.62,227,235.09,228.68Z"/><path class="cls-36" d="M222.79,229.95l-2.24.23-1.26.13-1.86.19a.83.83,0,0,1-.78-1.28l1.09-1.72.6-.94,1.09-1.72C221.38,225.29,222.43,227.06,222.79,229.95Z"/><path class="cls-37" d="M253,201.39c5.19-2.9,10.42-5.83,16.09-7.59.77-.24,1.75-.4,2.27.23a1.42,1.42,0,0,1,.05,1.53,3.83,3.83,0,0,1-1.11,1.16,62.75,62.75,0,0,1-7.79,4.89c-3.4,1.91-6.81,3.82-10.3,5.56a73,73,0,0,1-10.95,4.52,21,21,0,0,1-2.65.92.63.63,0,0,1-.57-.11c-.48-.52.3-2,.59-2.42a5.06,5.06,0,0,1,1.93-1.79c1.76-.92,3.49-1.88,5.22-2.86l2.85-1.61Z"/></g></g></g></svg>