<svg xmlns="http://www.w3.org/2000/svg" viewBox="0 0 630.27 527.87"><defs><style>.cls-1{isolation:isolate;}.cls-2{fill:#f0f0fa;}.cls-3{fill:#00a5d8;}.cls-39,.cls-4{fill:#292f3a;}.cls-14,.cls-5{fill:#191d23;}.cls-5{opacity:0.55;}.cls-6{fill:#f45a16;}.cls-7{fill:#027396;}.cls-8{fill:#e3e3e3;}.cls-9{fill:#0081b4;}.cls-10{fill:#fff;}.cls-11,.cls-17,.cls-29,.cls-38{fill:none;}.cls-11{stroke:#c4c4c4;}.cls-11,.cls-17{stroke-miterlimit:10;}.cls-12{fill:#141414;opacity:0.08;}.cls-13{fill:#fa504f;}.cls-14{opacity:0.21;}.cls-15{fill:#292f38;}.cls-16,.cls-22{fill:#3a4150;}.cls-17{stroke:#ffbd00;stroke-width:2px;}.cls-18{fill:#ffbd00;}.cls-19,.cls-24{fill:#ff8b00;}.cls-20{fill:#ffd05a;}.cls-21{fill:#ffdc8d;}.cls-22{opacity:0.14;mix-blend-mode:color-burn;}.cls-23{fill:#555e6d;opacity:0.7;}.cls-24{opacity:0.8;}.cls-25{fill:#d6d6d6;}.cls-26{fill:#c4c4c4;}.cls-27{fill:#b2b2b2;}.cls-28{fill:#ef3a3a;}.cls-29{stroke:#e3e3e3;stroke-linecap:round;stroke-linejoin:round;stroke-width:3px;}.cls-30{fill:#ea3f3f;}.cls-31,.cls-34{fill:#ffbe00;}.cls-32{fill:#ffe33b;}.cls-33{fill:#ffb000;}.cls-34{opacity:0.42;mix-blend-mode:multiply;}.cls-35{fill:#fcc9ac;}.cls-36{fill:#384250;}.cls-37{fill:#ffeb5a;opacity:0.34;}.cls-39{font-size:72px;font-family:MSReferenceSansSerif, MS Reference Sans Serif;}</style></defs><title>Ativo 9</title><g class="cls-1"><g id="Camada_2" data-name="Camada 2"><g id="Camada_1-2" data-name="Camada 1"><path class="cls-2" d="M270.73,390.6C198,416,118.26,377.46,92.89,304.77S106,152.3,178.73,126.94s152.47,13.14,177.83,85.83S343.42,365.24,270.73,390.6Z"/><path class="cls-3" d="M167.22,94A174.54,174.54,0,1,0,389.52,201.27,174.54,174.54,0,0,0,167.22,94ZM270.73,390.6C198,416,118.26,377.46,92.89,304.77S106,152.3,178.73,126.94s152.47,13.14,177.83,85.83S343.42,365.24,270.73,390.6Z"/><path class="cls-3" d="M603.93,407.13,437.08,326.24A198.31,198.31,0,0,1,412.8,377l166.68,80.8a28.12,28.12,0,1,0,24.44-50.64Z"/><path class="cls-4" d="M608.69,399.22,441.85,318.33a10,10,0,0,0-14,6c-1.69,5.37-3.64,10.65-5.79,15.83l-25.48-12.3a183.81,183.81,0,0,0,2.77-128.81c-33.53-96.09-139-147-235.08-113.46s-147,139-113.46,235.08,139,147,235.08,113.46a183.88,183.88,0,0,0,102.27-88l25.22,12.17c-2.65,4.85-5.5,9.6-8.57,14.22a10,10,0,0,0,4,14.6l166.69,80.81a38.15,38.15,0,0,0,33.18-68.72ZM69.81,314.09C39.92,228.45,85.29,134.46,170.92,104.58S350.55,120.06,380.43,205.7,365,385.32,279.31,415.21,99.69,399.73,69.81,314.09ZM608.38,441.43a18.08,18.08,0,0,1-24.12,8.43l-156.6-75.91a208.49,208.49,0,0,0,15.61-32.61l156.69,76a18.08,18.08,0,0,1,8.42,24.14Z"/><path class="cls-5" d="M143.3,228.46c0,.08,0,.16,0,.24v-.24Z"/><polygon class="cls-6" points="83.69 282.73 233.63 335.68 382.6 252.42 253.68 200.35 83.69 282.73"/><path class="cls-7" d="M233.93,372.45,84.37,315.26c-7.5-2.87-9.69-11.79-9-19,.36-3.69,1.17-7.33,3.35-10.4A14.89,14.89,0,0,1,87,279.92a12.77,12.77,0,0,1,8.36.74l132.27,58.72Z"/><polygon class="cls-7" points="83.69 314.11 233.63 373.32 382.6 287.36 382.6 278.78 253.68 236.57 83.69 314.11"/><polygon class="cls-8" points="233.07 368.92 382.6 283.19 382.6 250.9 233.07 334.18 233.07 368.92"/><polygon class="cls-7" points="83.69 281.23 233.06 334.21 382.6 250.92 382.65 247.19 253.68 198.85 83.69 281.23"/><path class="cls-9" d="M76.43,290.43s.79-2.33,4.61-6.08a18.15,18.15,0,0,1,17.22-4.49l134.83,50.4L382.6,247.15,253.13,194.94,89.68,274.22a38.57,38.57,0,0,0-8.44,7C76.88,286.54,76.43,290.43,76.43,290.43Z"/><path class="cls-10" d="M233.07,368.92,90.1,312a14.82,14.82,0,0,1-9.34-13.77h0a14.82,14.82,0,0,1,20-13.87l132.27,49.81Z"/><line class="cls-11" x1="96.97" y1="286.95" x2="227.63" y2="337.75"/><line class="cls-11" x1="89.75" y1="290.35" x2="227.63" y2="343.74"/><line class="cls-11" x1="87.03" y1="295.25" x2="227.63" y2="349.73"/><line class="cls-11" x1="85.94" y1="300.29" x2="227.63" y2="355.72"/><line class="cls-11" x1="87.84" y1="307.23" x2="227.63" y2="361.72"/><polygon class="cls-12" points="207.71 359.1 196.01 345.91 184.31 352.13 184.31 339.22 184.31 315.54 207.71 324.37 207.71 339.22 207.71 359.1"/><polygon class="cls-13" points="206.34 355.02 194.65 341.82 182.95 348.05 182.95 335.13 182.95 315.24 206.34 324.08 206.34 335.13 206.34 355.02"/><line class="cls-11" x1="236.11" y1="337.86" x2="376.88" y2="260.81"/><line class="cls-11" x1="236.52" y1="343.04" x2="377.29" y2="265.98"/><line class="cls-11" x1="236.92" y1="348.21" x2="377.7" y2="271.15"/><line class="cls-11" x1="237.33" y1="353.39" x2="378.11" y2="276.33"/><line class="cls-11" x1="237.74" y1="358.56" x2="378.51" y2="281.5"/><path class="cls-5" d="M143.29,228.93c0-.07,0-.16,0-.24v.52C143.29,229.12,143.29,229,143.29,228.93Z"/><rect class="cls-5" x="143.3" y="171.71" width="154.73" height="21.79"/><path class="cls-14" d="M302,265.7c0,18.69-34.79,36.09-77.71,36.09a152.92,152.92,0,0,1-24.78-2,112.68,112.68,0,0,1-31.58-9.74c-13.23-6.61-21.34-15.33-21.34-24.36,0-.16,0-.31,0-.47h0V208.47l154.73-10.7v63.46A15.16,15.16,0,0,1,302,265.7Z"/><path class="cls-4" d="M298.71,250.72c0,18.69-34.79,36.09-77.71,36.09a152.92,152.92,0,0,1-24.78-2,112.68,112.68,0,0,1-31.58-9.74c-13.23-6.61-21.34-15.33-21.34-24.36,0-.16,0-.31,0-.47h0V193.5H298v52.75A15.16,15.16,0,0,1,298.71,250.72Z"/><path class="cls-5" d="M298.71,250.72c0,18.69-34.79,36.09-77.71,36.09a152.92,152.92,0,0,1-24.78-2,112.68,112.68,0,0,1-31.58-9.74c-13.23-6.61-21.34-15.33-21.34-24.36,0-.16,0-.31,0-.47h0V233.58c0,6.84,8.25,19.17,21.34,25.71A112.68,112.68,0,0,0,196.21,269,152.92,152.92,0,0,0,221,271c39.42,0,72-20.67,77-37.56v12.79A15.16,15.16,0,0,1,298.71,250.72Z"/><path class="cls-5" d="M298,189.62v18.57l-67.16,31.48a24,24,0,0,1-15.18.63l-40.4-14-7.72-2.68L143.3,215.2V189.62Z"/><path class="cls-15" d="M337.62,185.09,230.87,232.52a24,24,0,0,1-15.18.63l-40.4-14-7.72-2.68L91.89,190.24c-4.25-1.48-5.06-5.07-.84-6.61l124.38-43.92c4.22-1.54,11-1.58,15-.11l7.29,2.68h0L337.42,179C341.64,180.51,341.73,183.27,337.62,185.09Z"/><path class="cls-16" d="M337.62,183.46,230.87,230.89a24,24,0,0,1-15.18.63l-40.4-14-7.72-2.68L91.89,188.61c-4.25-1.48-4.26-3.94,0-5.47l123.58-45.06c4.22-1.54,11-1.58,15-.11l7.29,2.68h0l99.72,36.69C341.64,178.88,341.73,181.64,337.62,183.46Z"/><path class="cls-17" d="M219.36,178.85c-22.72,3.26-45.46,6.52-67.93,11.23-7.16,1.5-14.59,3.29-20.17,8s-8.58,11.87-9.7,19.06-.52,14.54.09,21.8"/><path class="cls-18" d="M128.13,264.72c0,14.79-3.52,18.31-7.87,18.31a5.71,5.71,0,0,1-3.19-.87c-2.76-1.74-4.68-6.51-4.68-17.45a81.39,81.39,0,0,1,1-13.33l2.47-16,.09-.75h8.56l.08.75,2.54,16.49h0A82.19,82.19,0,0,1,128.13,264.72Z"/><ellipse class="cls-18" cx="217.97" cy="179.93" rx="7.25" ry="4.92"/><path class="cls-19" d="M225.21,179.93c0,2.72-3.24,4.92-7.25,4.92a8.26,8.26,0,0,1-6.28-2.48,9.17,9.17,0,0,0,4.92,1.32c4,0,7.25-2.21,7.25-4.93a3.74,3.74,0,0,0-1-2.44A4.38,4.38,0,0,1,225.21,179.93Z"/><ellipse class="cls-20" cx="216.9" cy="178.56" rx="4.4" ry="3.29"/><ellipse class="cls-21" cx="216.15" cy="177.6" rx="2.26" ry="1.69"/><path class="cls-22" d="M345.09,180.14l-7.47,3.32L230.87,230.89a24,24,0,0,1-15.18.63l-40.4-14c4.58-.14,40.43-1.51,56.27-6.88,10-3.39,19.83-8.34,26.7-16.38s10.24-19.65,6.43-29.51c-3.28-8.46-11.05-14.26-18.77-19-2.74-1.7-5.51-3.32-8.23-5.07l99.72,36.69Z"/><path class="cls-23" d="M209.71,153.77,134.22,181c-3,1.07-5.92.43-6.6-1.44h0c-.67-1.87,1.19-4.25,4.16-5.32l74.35-26.68c3-1.07,7.06-1,7.73.87h0C214.54,150.31,212.68,152.7,209.71,153.77Z"/><path class="cls-24" d="M128.13,264.72c0,14.79-3.52,18.31-7.87,18.31a5.71,5.71,0,0,1-3.19-.87c.47-.51,1-1,1.49-1.48a16,16,0,0,0,4.25-9.23,47.36,47.36,0,0,0,0-10.32l-1.32-17.26c-.21-2.82-.52-5.64-.65-8.47a4.92,4.92,0,0,1,0-.78h3.72l.08.75,2.54,16.49h0A82.19,82.19,0,0,1,128.13,264.72Z"/><circle class="cls-18" cx="120.26" cy="230.08" r="7.31"/><path class="cls-24" d="M127.57,230.08A7.31,7.31,0,0,1,114.08,234a7.23,7.23,0,0,0,4.08,1.25A7.31,7.31,0,0,0,124.34,224,7.3,7.3,0,0,1,127.57,230.08Z"/><ellipse class="cls-20" cx="118.24" cy="228.4" rx="3.74" ry="3.14" transform="matrix(0.61, -0.79, 0.79, 0.61, -134.88, 182.83)"/><path class="cls-20" d="M114.66,258a47.86,47.86,0,0,0,1.2,12,1.4,1.4,0,0,0,2.71,0,26.21,26.21,0,0,0,.65-6.23,117.69,117.69,0,0,0-.81-20.08,2.52,2.52,0,0,0-.85-1.58c-2.41-2-2.27,5.08-2.34,6C115,251.44,114.7,254.74,114.66,258Z"/><path class="cls-8" d="M351.7,237.8c-.28,7.62-2.24,9.72-2.24,9.72-19.78,7.24-112.22,64.3-112.22,64.3.86-6.39.33-11.25-1-14.94-5.19-14-22.59-11.09-23.28-11C269.18,266.12,323,220.78,323,220.78c15.46-6.26,25.72,2.65,28.15,12.16A17.15,17.15,0,0,1,351.7,237.8Z"/><path class="cls-14" d="M351.77,253.37s2-2.1,2.24-9.72a17.15,17.15,0,0,0-.55-4.86c-3.23,1.34-11.93,6.78-13.17,7.44l-14.63,7.87-52.23,28.07-26.26,14.12a37.42,37.42,0,0,0-6,3.55,21.58,21.58,0,0,0-10.19-2.41c-8.95,0-16.2,4.85-16.2,10.82s7.25,10.82,16.2,10.82a21.79,21.79,0,0,0,9.71-2.17V317l.51-.31a15.69,15.69,0,0,0,1.42-.87C255.78,307.66,333.69,260,351.77,253.37Z"/><path class="cls-25" d="M351.7,237.8c-.28,7.62-2.24,9.72-2.24,9.72-19.78,7.24-112.22,64.3-112.22,64.3.86-6.39.33-11.25-1-14.94.12-.19.25-.37.38-.56,2.09-3,5.06-4.17,8.26-5.88l26.26-14.12,52.23-28.07L338,240.38c1.24-.66,9.94-6.1,13.17-7.44A17.15,17.15,0,0,1,351.7,237.8Z"/><path class="cls-26" d="M244.47,300c0,8.77-9.66,15.86-21.57,15.86s-21.58-7.1-21.58-15.86S211,284.1,222.89,284.1a28.17,28.17,0,0,1,9.3,1.54c7.13,2.52,12.11,7.83,12.26,14C244.47,299.76,244.47,299.86,244.47,300Z"/><path class="cls-27" d="M229.3,307.78l3.55-8.72-2.73-5-9.39-3,11.48-5.39c7.13,2.52,12.11,7.83,12.26,14Z"/><path class="cls-28" d="M265.58,260.72s18.52,1.53,17,23.62L294,277.76s-.88-21.37-18.18-23.16Z"/><polygon class="cls-27" points="221.62 296.89 228.55 293.21 232.09 297.5 222.97 302.74 223.31 299.06 221.62 296.89"/><path class="cls-29" d="M231.24,284.12a27,27,0,0,0-15.22,1.6,20,20,0,0,0-8.05,5.4,9.49,9.49,0,0,0,2.69,15.19,19.76,19.76,0,0,0,7.76,2.17,18.26,18.26,0,0,0,8.42-.82,9.19,9.19,0,0,0,5.7-5.92,7.81,7.81,0,0,0-1.33-6.49,9,9,0,0,0-5.73-3.43,7.64,7.64,0,0,0-5.72,1.2,5.4,5.4,0,0,0-2.21,5.24,4.2,4.2,0,0,0,4.32,3.36,2.77,2.77,0,0,0,1.8-.88,1.88,1.88,0,0,0,.36-1.92,1.43,1.43,0,0,0-1.68-.82"/><ellipse class="cls-30" cx="277.49" cy="261.33" rx="13.34" ry="7.82"/><ellipse class="cls-13" cx="277.49" cy="260.21" rx="13.34" ry="7.82"/><ellipse class="cls-31" cx="277.22" cy="259.39" rx="7.67" ry="4.49"/><ellipse class="cls-32" cx="275.78" cy="258.4" rx="4.52" ry="2.47"/><path class="cls-33" d="M284.89,259.39c0,2.48-3.43,4.49-7.67,4.49a10.23,10.23,0,0,1-6.1-1.77,11.67,11.67,0,0,0,3.86.62c4.24,0,7.67-2,7.67-4.49a3.53,3.53,0,0,0-1.56-2.73C283.37,256.28,284.89,257.73,284.89,259.39Z"/><path class="cls-31" d="M327.39,275.52a4.39,4.39,0,0,1-.67.3l-1,.53L275.62,304l-.24-.43-2-3.63-5.85-10.61-.31-.57,49.58-27.32,1.86-1h0c2.69-1.56,6.82.57,9.23,4.75a13.37,13.37,0,0,1,1.27,3C330.06,271.35,329.44,274.34,327.39,275.52Z"/><path class="cls-34" d="M327.39,275.52a4.39,4.39,0,0,1-.67.3l-1,.53L275.62,304l-.24-.43-2-3.63,2.86-3.41,52.93-28.37C330.06,271.35,329.44,274.34,327.39,275.52Z"/><path class="cls-35" d="M275.62,304h0l-3.63.38-8.66.89-2.24.23-1.26.13-1.86.19a.83.83,0,0,1-.78-1.28l1.09-1.72.6-.94,1.09-1.72,4.64-7.3,2.61-4.11c2.68-1.07,6.48,1,8.75,5S278.15,302.34,275.62,304Z"/><path class="cls-36" d="M263.32,305.25l-2.24.23-1.26.13-1.86.19a.83.83,0,0,1-.78-1.28l1.09-1.72.6-.94,1.09-1.72C261.92,300.6,263,302.37,263.32,305.25Z"/><path class="cls-37" d="M293.54,276.7c5.19-2.9,10.42-5.83,16.09-7.59.77-.24,1.75-.4,2.27.23a1.42,1.42,0,0,1,.05,1.53,3.83,3.83,0,0,1-1.11,1.16,62.75,62.75,0,0,1-7.79,4.89c-3.4,1.91-6.81,3.82-10.3,5.56A73,73,0,0,1,281.81,287a21,21,0,0,1-2.65.92.63.63,0,0,1-.57-.11c-.48-.52.3-2,.59-2.42a5.06,5.06,0,0,1,1.93-1.79c1.76-.92,3.49-1.88,5.22-2.86l2.85-1.61Z"/><path class="cls-38" d="M56.26,164.32c0-2.76,153.41-5,343-5"/><text class="cls-39" transform="matrix(0.54, -0.84, 0.84, 0.54, 53.37, 163.19)"> </text><text class="cls-39" transform="translate(66.28 143.12) rotate(-50.3)"> </text><text class="cls-39" transform="matrix(0.73, -0.69, 0.69, 0.73, 81.48, 124.68)"> </text><text class="cls-39" transform="translate(98.73 108.18) rotate(-36.72)"> </text><text class="cls-39" transform="matrix(0.89, -0.45, 0.45, 0.89, 116.68, 93.23)">S</text><text class="cls-39" transform="translate(158.36 72.43) rotate(-13.61)">e</text><text class="cls-39" transform="translate(197.56 62.62) rotate(-1.12)">a</text><text class="cls-39" transform="translate(238.51 62.2) rotate(9.69)">r</text><text class="cls-39" transform="translate(266.9 66.59) rotate(19.51)">c</text><text class="cls-39" transform="matrix(0.86, 0.52, -0.52, 0.86, 300.29, 77.76)">h</text><text class="cls-39" transform="matrix(0.81, 0.59, -0.59, 0.81, 99.72, 466.22)"> </text><text class="cls-39" transform="translate(125.54 485.1) rotate(24.19)">F</text><text class="cls-39" transform="matrix(0.98, 0.18, -0.18, 0.98, 167.48, 503.5)">a</text><text class="cls-39" transform="translate(218.37 511.28) rotate(-4.37)">c</text><text class="cls-39" transform="translate(264.24 507.17) rotate(-19.33)">u</text><text class="cls-39" transform="matrix(0.86, -0.51, 0.51, 0.86, 312.58, 488.14)">l</text></g></g></g></svg>