<svg xmlns="http://www.w3.org/2000/svg" viewBox="0 0 392 366.8"><defs><style>.cls-1{fill:#d9e7e9;}.cls-2{fill:#82b378;}.cls-3{fill:#ed7d2b;}.cls-4{fill:#ffb27d;}.cls-5{fill:#233862;}.cls-6{fill:#c94c43;}.cls-7{fill:#ed975d;}.cls-8{fill:#fff;}.cls-9{fill:#1c468a;}.cls-10{fill:#f99746;}.cls-11{fill:#efcbab;}.cls-12{fill:#d8a987;}.cls-13{fill:#ddb08e;}.cls-14{fill:#b56f40;}.cls-15{fill:#99592e;}.cls-16{fill:#2c3a64;}.cls-17{fill:#d2e3fc;}.cls-18{fill:#fff0e6;}.cls-19{fill:#ed985f;}.cls-20{fill:#132644;}.cls-21{fill:#ee9849;}.cls-22{fill:#bc3f3f;}.cls-23{fill:#fcecdb;}.cls-24{fill:#932424;}.cls-25{fill:#5685d8;}.cls-26{fill:#739af0;}.cls-27{fill:#6bb7bf;}.cls-28{fill:#86d1cd;}</style></defs><title>Ativo 2</title><g id="Camada_2" data-name="Camada 2"><g id="Camada_1-2" data-name="Camada 1"><path class="cls-1" d="M11.83,366.58s-29.48-128.74,4.62-209c28-66,66.13-78.92,95.72-39.2,12.61,16.92,47.81,12.91,90.22-67.59C257.48-53.71,395.56,4.25,368.9,213.25,356,314.39,411.25,265.7,384.67,366.8Z"/><path class="cls-2" d="M42.33,365.8s-12.07-33.15-20.55-30.32S42.33,365.8,42.33,365.8Z"/><path class="cls-2" d="M37.7,365.8c-1,0-20.29-20-21.57-14.76S37.7,365.8,37.7,365.8Z"/><path class="cls-2" d="M58.25,365.8s-8-7.3-18.05-5.4-14.39,4-20.73,2.54A9.38,9.38,0,0,0,9.9,365.8Z"/><path class="cls-3" d="M33.67,229s-4.19-2.65-4.63-5.84c0,0-4.08.22-5,1.54,0,0,1.87,5.29,4.08,6.28C28.15,231,33.12,231.36,33.67,229Z"/><path class="cls-4" d="M152.8,189.67a13.41,13.41,0,0,0-2.29-2.45c-1.22-.94-2.51-2.71-2.13-3.28a42.87,42.87,0,0,1,4-3.26l2,4.83Z"/><polygon class="cls-5" points="184.44 133.28 216.35 120.63 234.2 137.84 203.87 149.68 184.44 133.28"/><path class="cls-4" d="M167,201.47l-12.71-16.32-1.51,4.51s13,29.6,19,26.85C174.56,215.23,167,201.47,167,201.47Z"/><path class="cls-6" d="M206.74,148.25s-6.2,3.65-2.4,10.73c0,0-5.43-1-6.6-2.61a4.26,4.26,0,0,0,.34,1s-6.36-.81-7.53-3.18c-2.42-4.89,3.45-4.58,6-9.66,3.31-6.63,8.51-11.84,15.86-8.18,0,0,10.28-.56,5.63,12.61s-.26,14.33-.26,14.33a6.47,6.47,0,0,1-2,.12s-.77-.56-.82-1.08a3.17,3.17,0,0,0,.13,1.09s-4.86-.81-6.75-3.22S205.33,150.85,206.74,148.25Z"/><path class="cls-4" d="M197.79,169.45h0S197.74,169.45,197.79,169.45Z"/><path class="cls-4" d="M212.86,165.11c.18,1.63.4,3.1.5,3.8.07.5,1.2,9.41-.87,9.5S205.3,189,203,189c-2.58-.1-4.87-19.51-5.21-19.51.66-.29,2.67-6.67,3.31-9.11.77-3,1.38-6.14,1.38-6.14l10.48.66.62,0a36.48,36.48,0,0,0-.85,4c0,.17,0,.34-.07.5A27.18,27.18,0,0,0,212.86,165.11Z"/><path class="cls-6" d="M201,153.14s-1.7-5.39-1.35-9.52c.25-2.95,4.95-11.31,15-7,0,0,2.47-.59,4.82,2.1,1.87,2.14,4.28,6.33-1.81,14.47L216,156Z"/><path class="cls-7" d="M212.86,165.11c-7.33-2.15-10.44-10.61-10.44-10.61,3.1.09,7.14,2.24,10.31,4.43,0,.17,0,.34-.07.5A27.18,27.18,0,0,0,212.86,165.11Z"/><path class="cls-4" d="M213.38,162.14s-13.24-3.27-11.08-11.49,1.91-14.17,10.46-12.43,9.36,5.31,9.3,8.23S216.88,162.78,213.38,162.14Z"/><path class="cls-6" d="M218.82,139.61s-6.16,8.68-12.08,8.64-7.93-2.16-7.93-2.16a16.23,16.23,0,0,0,7.58-7.91S217.31,134.31,218.82,139.61Z"/><path class="cls-6" d="M217.72,140.16s2.13,2.86,2.23,5.13-.74,6.65.55,6.83c0,0,4.45-5.83,2.38-10.34C220.68,137,217.72,140.16,217.72,140.16Z"/><path class="cls-6" d="M218.13,140.62S212.89,150,205,151.41c0,0,8.63-4.35,11-10.85S218.13,140.62,218.13,140.62Z"/><path class="cls-8" d="M211.31,156.87s.17,1.25,1,1.55a11.56,11.56,0,0,0,3.13.7,10.62,10.62,0,0,0,1-1.11S213.08,156.73,211.31,156.87Z"/><path class="cls-4" d="M206.37,282.53l-.5,2.09c-1,4.15-1.93,8-2.51,11.21-.76,4.19-.94,7.31.06,8.61,2.58,3.38,1.92,21.46,1.07,34.48-.5,7.75-1.07,13.7-1.07,13.7l-4.68,4.82s-1.48-7.69-3.35-17c-2.51-12.54-5.73-28-7-31.84-1-3-2.47-15.86-3.76-29l-.19-2c-.22-2.29-.44-4.58-.64-6.81a116.08,116.08,0,0,1,.52-24.1A28.31,28.31,0,0,1,198.24,241c4.62-.4,9,1.07,11.11,6.74C212.47,256,209.31,270.3,206.37,282.53Z"/><path class="cls-7" d="M206.37,282.53c-6.41-4.63-15.43-12.87-18.71-26.38-.63-6.72,4.67-13.1,10.58-15.11,4.62-.4,9,1.07,11.11,6.74C212.47,256,209.31,270.3,206.37,282.53Z"/><path class="cls-4" d="M229.75,200.94l31.51,8.14v3.68s-31.36-.37-33.38-3.86S229.75,200.94,229.75,200.94Z"/><path class="cls-4" d="M261.26,322.22l-1.47,6.08s-6.51-3.36-14.77-7.71c-12.88-6.78-30-16-33.37-18.53-2.21-1.7-5.14-10.92-7.85-21.36-4-15.56-7.6-33.8-7.6-33.8s6-23,22-8.92c9.57,8.42,8.08,24.64,7,37.25-.7,8.46-1.2,15.31,2,17.08,4.56,2.54,15.6,11.84,23.41,20.94a53.53,53.53,0,0,1,6.7,9.39Z"/><path class="cls-4" d="M261.26,209.08s5.78-2.85,8.08-3.12,6.16-.37,6.16,0-4.14,2.94-5.24,3.12-3.22,1.75-2.57,1.93,4-.6,4.09,0-2.07,1-2.44,1.42-1.65,1-3.72.74-4.36-.41-4.36-.41Z"/><path class="cls-9" d="M261.26,295.72c-20.35,29.3-72.85,32.58-72.85,32.58-8.52-31.11-5-109.77-3.08-139-.12-5.11.08-9.42.92-11.08,1.31-2.59,8.4-7.08,11-9.31a4.4,4.4,0,0,1,1.1-.28c.38,1.34,5.11,17.39,5.58,17.06s8.45-15.58,9.29-17.38l1.61.06c1.41.07,9,1.59,9.64,2.81.22.43,2.4,6.2,5.14,13.85v0c5.13,14.35,12.66,11.65,15.65,15.9,1.88,2.67,1.07,7.65-2.42,12-.3.37-.61.73-.94,1.08-2.65,2.81-6.25,4.47-12.11,3.61a16.64,16.64,0,0,1-6.81-3.7C228.71,235.52,261.26,295.72,261.26,295.72Z"/><path class="cls-10" d="M198.65,167.88l-2.76,1.58s7.52,21.28,7.89,21.18,11.67-22.21,11.67-22.21l-2.3-1-9.27,18.22Z"/><path class="cls-9" d="M222.1,140.44s-9.64-5.41-25.57,4.1l.69-2.61a8.67,8.67,0,0,1,4.29-5.46,23.53,23.53,0,0,1,11.4-2.49,9.75,9.75,0,0,1,8.6,5.31Z"/><path class="cls-11" d="M174.06,147.38l-.24-.8c8.54-2.53,10.37-11.4,10.68-13.47a.67.67,0,0,1,.49-.55h0a.37.37,0,0,1,.46.42C185.06,135.37,183,144.74,174.06,147.38Z"/><polygon class="cls-12" points="173.82 146.57 172.68 146.57 173.12 147.95 174.06 147.38 173.82 146.57"/><path class="cls-11" d="M172.68,146.57s-1.57.44-1.9,0c0,0,0,1.33.52,1.67a4.36,4.36,0,0,0,1.81-.3Z"/><path class="cls-8" d="M199.21,169.79s2.52,4.63,12.55.41l-7.88,15.48Z"/><path class="cls-9" d="M195.9,169.45s-1.31,44-12.17,52.58a6.58,6.58,0,0,1-2.44,1.25c-5.49,1.4-9.48-1.87-12.17-6.4-3.75-6.29-5-15-4.38-17,1.21-3.83,4,2.94,9.86,1.08S182,175.47,186.11,172C187.18,171.14,195.9,169.45,195.9,169.45Z"/><path class="cls-11" d="M142.88,200.79a31.72,31.72,0,0,1-3.2-2,13.29,13.29,0,0,1-1.93-1.68,4,4,0,0,1-.67-1s13.26-16,14.32-17.84,11.06-17.37,11.06-17.37a25.35,25.35,0,0,1,2.7,1.53c.55.36,1.13.76,1.69,1.21a10.52,10.52,0,0,1,2.61,2.87s-14.57,14.76-15.6,16.89S142.88,200.79,142.88,200.79Z"/><path class="cls-13" d="M139.68,198.77a13.29,13.29,0,0,1-1.93-1.68,4,4,0,0,1-.67-1s13.26-16,14.32-17.84,11.06-17.37,11.06-17.37a25.35,25.35,0,0,1,2.7,1.53c.55.36,1.13.76,1.69,1.21-4.09,4.17-15.13,15.56-16.08,17.51S142.66,194.19,139.68,198.77Z"/><path class="cls-6" d="M153.33,175.18s-3.91,3.8-4.36,6.38l4.09,3.28s3.58-3.51,4.71-6.1Z"/><path class="cls-4" d="M154.32,185.15s.28-2.58-.31-3.48-.65-3.41-1.2-3.14-.2,2.31-.55,3.3-.86,5.59.55,6.46S154.32,185.15,154.32,185.15Z"/><path class="cls-4" d="M150.35,178.69s-1.63-.25-2.22.83-1.33,2.84-.21,3.53S150.35,178.69,150.35,178.69Z"/><path class="cls-8" d="M204.48,338.93c-.5,7.75-1.07,13.7-1.07,13.7l-4.68,4.82s-1.48-7.69-3.35-17C195.38,340.43,200.63,342.25,204.48,338.93Z"/><path class="cls-5" d="M208.11,359.59,205.59,361c-.92.32-1.68.42-2.6.77a5.38,5.38,0,0,0-2.45,1.79c-.71,2.9-1.72,2.71-1.72,2.71l-10.14.1c-.48-.24.33-2.29.72-2.67,1-.94,3.83-.47,4.88-3.44.59-1.67,3.5-6.86,3.5-6.86l0,0c.1-.05.64-.16,3.57.45,1.51.31,2.14-2.76,2.14-2.76a2.87,2.87,0,0,1,1,.47,3,3,0,0,1,1.12,1.52,12.14,12.14,0,0,0,2.92,3.56c.65.6,1.14,1,1.14,1S210.14,358.15,208.11,359.59Z"/><path class="cls-8" d="M261.26,322.22l-1.47,6.08s-6.51-3.36-14.77-7.71a13.83,13.83,0,0,0,5.58-7.34,53.53,53.53,0,0,1,6.7,9.39Z"/><path class="cls-5" d="M269.69,324.58h0a2.66,2.66,0,0,1-1.65-1.73c-.38-.92-.5-1.67-.85-2.58l-1.44-2.48c-1.51-2-2-1.52-2-1.52s-.39.5-1,1.17a12.15,12.15,0,0,1-3.48,3,3,3,0,0,0-1.49,1.17,2.87,2.87,0,0,0-.44,1s3.09.54,2.82,2.06c-.52,2.95-.4,3.48-.35,3.58l0,0s5.27,2.76,7,3.3a13.15,13.15,0,0,1,5.54,3.93,1.74,1.74,0,0,0,1.48.46c.79-.12,1.82-.38,2-.86Z"/><circle class="cls-5" cx="203.32" cy="199.27" r="1.52"/><circle class="cls-5" cx="203.32" cy="210.58" r="1.52"/><path class="cls-5" d="M242.8,212.89c-.3.37-.61.73-.94,1.08-2.65,2.81-6.25,4.47-12.11,3.61a16.64,16.64,0,0,1-6.81-3.7s-4.83-13.19-4.18-15.05,10,12.6,17.67,13.28A56.55,56.55,0,0,1,242.8,212.89Z"/><path class="cls-5" d="M186,202.63l-2.3,19.4a6.58,6.58,0,0,1-2.44,1.25c-5.49,1.4-9.48-1.87-12.17-6.4,2.81.39,9.64,1,11.13-2C182.12,211.15,186,202.63,186,202.63Z"/><path class="cls-14" d="M50.79,96s2.73-2.47,3.4-4.2.59-4.63.59-6.52a.76.76,0,0,0-1,.61c-.2.9-.57,3-1.33,3.39s-2.46.37-2.85,2.51A6,6,0,0,0,50.79,96Z"/><path class="cls-14" d="M44.54,96.39s-2.49-5.09-2-6.75,8.14-3.47,9.15-2.69,0,10.29,0,10.29Z"/><path class="cls-14" d="M124.94,249.76s-.37,4.2,1.1,6.21,2.25,3.84,2.74,2.92-.79-4.08-.37-4,1.61,3.78,2.21,4.93,1.88,3,2.73,2.07-.79-9.56-1.46-10.66-2.07-3.53-2.07-3.53Z"/><polygon class="cls-5" points="72.4 123.07 101.48 106.72 121.02 130.93 94.4 143.84 72.4 123.07"/><path class="cls-6" d="M84.61,130.79s-.61,2.61-2.31,3.54,1,3.44.3,5.29,2,4.23,2,4.23L103.42,146a5.4,5.4,0,0,0,3-4.42c.24-3.23.53-7.26.53-7.26l-8.21-6.26-11.82.56Z"/><path class="cls-11" d="M21.51,99.47A37.74,37.74,0,0,1,20,95.21a15.86,15.86,0,0,1-.55-3,4.75,4.75,0,0,1,.09-1.38s24.21-5,26.59-6,23.2-7.94,23.2-7.94a30.13,30.13,0,0,1,1.37,3.42c.24.74.48,1.55.67,2.39a12.53,12.53,0,0,1,.3,4.61s-24.53,2.91-27.07,4.13S21.51,99.47,21.51,99.47Z"/><path class="cls-13" d="M20,95.21a15.86,15.86,0,0,1-.55-3,4.75,4.75,0,0,1,.09-1.38s24.21-5,26.59-6,23.2-7.94,23.2-7.94a30.13,30.13,0,0,1,1.37,3.42c.24.74.48,1.55.67,2.39-6.91.85-25.65,3.23-28,4.35S26.21,93.16,20,95.21Z"/><path class="cls-6" d="M50.26,83.39s-6.46.63-8.8,2.7l1.37,6.1s5.94-.6,8.92-2.17Z"/><path class="cls-5" d="M56.14,365.34s0-3.89.55-5.18,2.59-6.56,2.59-6.56h7.94A48.73,48.73,0,0,1,68.79,360c.09,1.57,0,5.37,0,5.37Z"/><path class="cls-5" d="M106.56,365.34s0-3.89-.55-5.18-2.59-6.56-2.59-6.56H95.48A48.68,48.68,0,0,0,93.91,360c-.09,1.57,0,5.37,0,5.37Z"/><path class="cls-14" d="M86.7,146.45S85.1,155,83.42,158.63l-9.6,4.71L87.25,189.9l18.45-16.65-6.13-12s-.58-11.84,1.3-15.89S86.7,146.45,86.7,146.45Z"/><path class="cls-15" d="M86.47,147.63s1.62,6.61,6.51,7.22,6.83-4.72,6.83-4.72Z"/><path class="cls-14" d="M92.79,152.36c-3.51-.6-9.27-6.29-8.38-12.1l1.39-9.06a3.66,3.66,0,0,1,3.88-3.35l13.44,2.07a3.66,3.66,0,0,1,2.69,4.36l-1.32,8.55C103.56,148.92,96.82,153.05,92.79,152.36Z"/><path class="cls-10" d="M57.13,230.68c0-1.06,1.38,42.13-.69,66.65-2,24.21,0,57.91,0,57.91a15.71,15.71,0,0,0,13.85,0s7.9-46.77,7.85-57.91c-.05-11.86,8.6-64.8,8.6-64.8Z"/><path class="cls-10" d="M106.28,355.23a15.7,15.7,0,0,1-13.85,0s-7.9-46.77-7.85-57.91c0-5-1.51-17.34-3.28-29.92C78.87,250.19,76,232.53,76,232.53l30.77-1.92s-2.54,42.51-.46,66.72S106.28,355.23,106.28,355.23Z"/><path class="cls-16" d="M89.9,140.88c-1.31-.2-3.89-.9-4-3.25a2.09,2.09,0,0,1,.65-1.72,2.47,2.47,0,0,1,2-.52l4,.62a1.8,1.8,0,0,1,1.49.9,2.67,2.67,0,0,1-.42,2.26c-.86,1.4-1.83,2-3.06,1.78A7.38,7.38,0,0,1,89.9,140.88Zm-1.35-5.22a2.21,2.21,0,0,0-1.83.45,1.83,1.83,0,0,0-.56,1.5,3,3,0,0,0,2.27,2.62,8.06,8.06,0,0,0,2.22.45h0c1.11.17,2-.36,2.8-1.66.18-.29.73-1.3.4-2a1.56,1.56,0,0,0-1.29-.75Z"/><path class="cls-16" d="M99.21,142.31a7.39,7.39,0,0,1-.73-.15c-1.23-.19-2-1-2.38-2.62a2.67,2.67,0,0,1,.28-2.28,1.8,1.8,0,0,1,1.69-.41l4,.62a2.47,2.47,0,0,1,1.79,1.11,2.09,2.09,0,0,1,.1,1.83C103.19,142.62,100.52,142.51,99.21,142.31ZM98,137.11a1.56,1.56,0,0,0-1.45.33c-.53.58-.3,1.7-.22,2,.37,1.48,1.06,2.25,2.17,2.42h0a8.06,8.06,0,0,0,2.25.24,3,3,0,0,0,3-1.82,1.83,1.83,0,0,0-.08-1.6,2.2,2.2,0,0,0-1.6-1Z"/><path class="cls-16" d="M93.62,138.07a.16.16,0,0,1,0-.31,3.81,3.81,0,0,1,3,.47.16.16,0,0,1-.19.26,3.53,3.53,0,0,0-2.77-.42Z"/><path class="cls-8" d="M90.06,163.33,81,159.39s-4.7,37.38,1.57,39.69c0,0,17.9-31.79,16.68-35.88Z"/><path class="cls-17" d="M84.31,157a8.85,8.85,0,0,0-3.9,1.72s1.95,6.33,7.13,8.22l2.22-3.63A11.06,11.06,0,0,1,84.31,157Z"/><path class="cls-17" d="M89.76,163.33s8.47-.33,9.73-4.41a6.89,6.89,0,0,1,1.63,4.63s-2.68,4-9.38,4.09Z"/><path class="cls-18" d="M90.47,146s4.51.2,6.49,1a3.89,3.89,0,0,1-3.17,1.35C92,148.08,90.73,147.21,90.47,146Z"/><path class="cls-14" d="M58.56,132.73c-4.09,2.58-9.67,6.07-14.23,8.82a16.75,16.75,0,0,1-.48-2.08c-1.51-9.63.68-43.09.68-43.09a9.69,9.69,0,0,1,3.09-.89,4.17,4.17,0,0,1,4.08,1.75S56.87,126.67,58.56,132.73Z"/><path class="cls-9" d="M130.93,249.08l-3.08,1.28A9,9,0,0,1,116,244.77c-2.17-6.71-2.4-13.94-3.2-19.88-.4-2.92-.85-9-2.63-13.65h0l3.1,104c-46.41,3.29-69-23.39-69-23.39-1.2-28.15,10-91.58,14.15-113.56-2-4.47-16-17.28-18.36-29.87-1.09-5.84,2.32-10,6.47-12.77a38.17,38.17,0,0,1,11.59-4.91l15,20.05a9.36,9.36,0,0,1,1.26,1.64c1.16,2.36,7.16,6.27,7.16,6.27s.65,33.8,1.87,34.88c1.77-.67,13.6-24.36,16.22-32.26a87.94,87.94,0,0,1,12.13,4.33s8.12,4.34,9.27,23.23c1,16,10.77,36.48,13,55.06A5,5,0,0,1,130.93,249.08Z"/><path class="cls-6" d="M79.81,157.52s1.1,32.66,2.49,40.83l20.83-36-2.87-1.06L83.8,191.12l-1.62-32.44Z"/><path class="cls-8" d="M84.31,156.25a8.86,8.86,0,0,0-3.9,1.72s1.95,6.33,7.13,8.22l2.22-2.86S85.54,160.56,84.31,156.25Z"/><path class="cls-8" d="M89.76,163.33s8.47-1.1,9.73-5.18a6.89,6.89,0,0,1,1.63,4.63s-2.68,4-9.38,4.09Z"/><circle class="cls-5" cx="78.87" cy="201.84" r="1.54"/><circle class="cls-5" cx="75.98" cy="215.69" r="1.54"/><path class="cls-11" d="M74.51,138.4l.51-.48c-5.15-5.43-2.76-12.66-2.12-14.3a.57.57,0,0,0-.13-.61h0a.31.31,0,0,0-.51.11C71.54,125,69.13,132.73,74.51,138.4Z"/><polygon class="cls-12" points="75.02 137.92 75.84 138.39 74.95 139.21 74.51 138.4 75.02 137.92"/><path class="cls-11" d="M75.84,138.39s1,1,1.38.8c0,0-.53,1-1.08,1a3.67,3.67,0,0,1-1.2-1Z"/><path class="cls-6" d="M85.09,132.75s3.61.24,4.67-1.58c0,0,2.93.73,4.22-.37,0,0,4.52.91,4.64-.91,0,0,3.45,6.91,7.24,5.47s-6.06-8.45-6.06-8.45l-12.88,1.72Z"/><path class="cls-9" d="M85.35,127.58l-.74,3.21s10.06-3.57,22.34,3.54l-.14-5.17a3.49,3.49,0,0,0-1.27-2.6c-2.22-1.83-7.53-5.42-17.37-2.56C86.8,124.39,85.67,126.18,85.35,127.58Z"/><path class="cls-14" d="M41.39,88a3.1,3.1,0,0,1,.21-2.87c.91-1.28,6.87-3.25,7.42-2.21s.2,4.64-1.71,5.44S41.54,88.78,41.39,88Z"/><path class="cls-5" d="M58.36,178.26c-2-4.47-16-17.28-18.36-29.87-1.09-5.84,2.32-10,6.47-12.77A23.29,23.29,0,0,0,50,152.44C55.55,160.41,58.36,178.26,58.36,178.26Z"/><path class="cls-5" d="M127.85,250.36A9,9,0,0,1,116,244.77c-2.17-6.71-2.4-13.94-3.2-19.88-.4-2.92-.85-9-2.63-13.65a117.79,117.79,0,0,1,10.3,22.36C125.34,247.48,123.82,249.51,127.85,250.36Z"/><polygon class="cls-4" points="281.05 216.16 278.32 246 282.38 246.63 293.86 220.08 281.05 216.16"/><path class="cls-4" d="M282.91,243.56a12.33,12.33,0,0,0-.35,5.45c.39,1.55-2,3.68-4.69,6.63-.27.3-.77,0-.71-.4a2.93,2.93,0,0,1,.22-.73,23.53,23.53,0,0,1,1.87-3.07c-.11-.44-3,1.1-4.56,2.16-.93.62-3.63,3.53-4.35,3.1s.44-3.24,1.69-5.3,5.74-3.81,6.3-5.39S282.91,243.56,282.91,243.56Z"/><polygon class="cls-5" points="296.01 107.92 325.73 95.25 353.13 108.31 325.73 122.22 296.01 107.92"/><path class="cls-11" d="M300.82,122.48l.42-.56c-6-4.5-4.82-12-4.46-13.75a.57.57,0,0,0-.23-.58h0a.31.31,0,0,0-.49.19C295.68,109.79,294.58,117.78,300.82,122.48Z"/><polygon class="cls-12" points="301.24 121.92 302.14 122.25 301.39 123.21 300.82 122.48 301.24 121.92"/><path class="cls-11" d="M302.14,122.25s1.11.8,1.5.56c0,0-.36,1.05-.9,1.17a3.67,3.67,0,0,1-1.34-.77Z"/><polygon class="cls-4" points="315.22 334.4 313.2 342.88 310.53 354.13 302.17 354.13 301.67 343.36 301.28 335.05 315.22 334.4"/><path class="cls-5" d="M298.86,366.49s0-4.09.58-5.45,2.72-6.9,2.72-6.9h8.36a51.28,51.28,0,0,1,1.65,6.71c.1,1.65,0,5.65,0,5.65Z"/><path class="cls-5" d="M351.94,366.49s0-4.09-.58-5.45-2.72-6.9-2.72-6.9h-8.36a51.26,51.26,0,0,0-1.65,6.71c-.1,1.65,0,5.65,0,5.65Z"/><path class="cls-4" d="M318.45,136.78s-.29,9.11-1.46,13.2l-9.23,19.9,20.43,28.29,14.32-36.54-8.29-11.45s-2.5-12.22-1.19-16.74S318.45,136.78,318.45,136.78Z"/><path class="cls-19" d="M318.4,138s2.75,6.62,7.92,6.47,6.35-6,6.35-6Z"/><path class="cls-20" d="M315.31,132.68s-1.67-8.34-2.84-10.87-2.14-13.8,10.79-14.39c0,0,5,.58,7.68-1.07,0,0,0,1.65-.68,2.24,0,0,3.37-2.12,6.87,1.77s-1.23,18.55-.94,21.75Z"/><path class="cls-4" d="M325.73,141.95c-3.75-.07-10.65-5.06-10.65-11.24v-9.65c0-2.26,1.57-4.11,3.5-4.11h14.31c1.92,0,3.5,1.85,3.5,4.11v9.1C336.38,136.64,330,142,325.73,141.95Z"/><path class="cls-20" d="M315.07,126.21s0-5.8,4.61-6.69,14.87,2.83,16.33-1.4-19.87-4.16-20.94-1.46S315.07,126.21,315.07,126.21Z"/><polygon class="cls-8" points="316.99 149.97 325.54 151.89 334.18 149.81 336.38 163.07 326.69 196.08 316.08 156.52 316.99 149.97"/><polygon class="cls-17" points="316.57 152.69 323.36 157.75 325.58 154.11 327.64 157.75 334.88 151.46 333.45 149.81 325.54 151.89 316.99 151.5 316.57 152.69"/><path class="cls-21" d="M352.14,224.68l-20.34,1.27c-.12-.19-.25-.19-.39,0l-6,.37-25.51-1.59S293.49,254,296,293.06c.8,12.45,2.6,49.32,4.31,62.36l17.48.18c2.27-14.74,4.89-51.54,6.3-57.86q1-4.3,1.79-8.53a54.14,54.14,0,0,1,.82,7.43c0,2.59.75,6.72,1.79,11.7,1.47,7,5.8,39.3,7.09,47.74h18.35c.22-11.62,1.22-51.08,1.43-63C355.93,261.24,352.14,224.68,352.14,224.68Z"/><path class="cls-9" d="M366.18,327.56c-9.35,4.9-73,10.71-84.46-2.76-1.94-2.29,25.2-172.91,25.2-172.91s1.75-.51,4.7-1.06c1.51-.28,3.32-.58,5.37-.83,0,.64,4.42,28.35,10.4,39.15,0,0,6.78-14.91,6.82-39a2.71,2.71,0,0,0,0-.35c1.28.14,2.58.32,3.89.54q.83.14,1.66.31a53.6,53.6,0,0,1,6.31,1.66S368.13,326.54,366.18,327.56Z"/><path class="cls-9" d="M314.3,150.32s-9.75,74.86-13.48,80.47c-1.57,2.35-3.85,2.73-6.55,2.21-.51-.1-1-.23-1.59-.39l-7.47-2.86h0c-1.21-.48-2.43-.94-3.65-1.32-7.68-2.38-7.08-8.84-5-17.65s15.6-51.24,20.17-54.24A43.88,43.88,0,0,1,314.3,150.32Z"/><path class="cls-4" d="M334.18,149.81A77,77,0,0,0,317,150a.29.29,0,0,1,0,0S332.9,140.13,334.18,149.81Z"/><path class="cls-22" d="M328.58,196.08c-9.84-7.25-17-45.25-17-45.25,1.51-.28,3.32-.58,5.37-.83,0,.64,4.18,26.82,10.16,37.63,0,0,7-13.39,7.07-37.47a2.71,2.71,0,0,0,0-.35c1.28.14,2.58.32,3.89.54q.83.14,1.66.31C339.74,170.95,328.58,196.08,328.58,196.08Z"/><path class="cls-18" d="M322.41,134.8s4.49-.45,6.57.06a3.89,3.89,0,0,1-2.95,1.79C324.21,136.63,322.84,136,322.41,134.8Z"/><path class="cls-9" d="M311.57,112.34l.27,4.37s10.07-6.73,26.58-.55l-.23-6.32a4.34,4.34,0,0,0-2.09-2.93c-3.1-1.78-10.35-5.09-21.81.45C312.68,108.13,311.67,110.56,311.57,112.34Z"/><polygon class="cls-8" points="317.74 145.95 314.3 150.32 323.38 156.52 325.54 151.89 317.74 145.95"/><polygon class="cls-8" points="333.48 145.95 325.54 151.89 327.81 156.52 335.63 149.98 333.48 145.95"/><circle class="cls-17" cx="325.72" cy="162.58" r="0.63" transform="translate(-19.57 277.91) rotate(-45)"/><circle class="cls-17" cx="325.72" cy="169.32" r="0.63" transform="translate(-24.34 279.89) rotate(-45)"/><circle class="cls-17" cx="325.72" cy="176.26" r="0.63" transform="translate(-29.24 281.92) rotate(-45)"/><path class="cls-9" d="M346,152.32a19.72,19.72,0,0,1,9.39,10c3.27,7.5,16.86,28,16.46,37.57s-2.24,18.32-11.37,18.62c-6.27.2-12.65-5.93-12.65-15.1S346,152.32,346,152.32Z"/><path class="cls-5" d="M365.48,213.17c-.25,2.59-1.21,4.67-3.53,5.25-7.32,1.83-10.56-5.24-9-12.16q.08-.35.18-.66c1.56-5.06,7.18-5.84,9.26-5.95.49,0,.78,0,.78,0l.12.33C363.79,201.52,365.95,208.25,365.48,213.17Z"/><path class="cls-4" d="M365.48,213.17s-21.35-9.61-29.79-20.64c-.62-.81,1-1.81,1-1.81l25.71,8.93.89.31C363.79,201.52,365.95,208.25,365.48,213.17Z"/><rect class="cls-23" x="312.16" y="191.25" width="28.2" height="37.17"/><polygon class="cls-24" points="323.75 217.45 320.58 222.75 322.59 222.46 323.45 224.05 326.14 219.18 323.75 217.45"/><polygon class="cls-24" points="327.95 217.12 331.13 222.42 329.12 222.13 328.26 223.73 325.57 218.85 327.95 217.12"/><path class="cls-22" d="M322.64,216.28a3.72,3.72,0,0,1,3.52-3.52c2.51-.38,3.52,1.58,3.52,3.52a3.52,3.52,0,0,1-3.52,3.52C324.21,219.8,322.34,218.2,322.64,216.28Z"/><path class="cls-24" d="M326.15,219.08a3.05,3.05,0,0,1-2.26-1,2.23,2.23,0,0,1-.55-1.8h0a3,3,0,0,1,2.78-2.78,2.29,2.29,0,0,1,1.93.46,3,3,0,0,1,.91,2.34A2.81,2.81,0,0,1,326.15,219.08Zm.46-5.33a2.87,2.87,0,0,0-.44,0,2.64,2.64,0,0,0-2.51,2.51h0a1.91,1.91,0,0,0,.47,1.54,2.71,2.71,0,0,0,2,.91,2.48,2.48,0,0,0,2.48-2.48,2.73,2.73,0,0,0-.79-2.09A1.82,1.82,0,0,0,326.61,213.75Z"/><path class="cls-9" d="M330.19,195.72h-7.85a.24.24,0,0,1-.24-.24h0a.24.24,0,0,1,.24-.24h7.85a.24.24,0,0,1,.24.24h0A.24.24,0,0,1,330.19,195.72Z"/><path class="cls-9" d="M331.71,196.71H320.82a.24.24,0,0,1-.24-.24h0a.24.24,0,0,1,.24-.24h10.89a.24.24,0,0,1,.24.24h0A.24.24,0,0,1,331.71,196.71Z"/><path class="cls-9" d="M334.3,204.92H318.23a.27.27,0,0,1-.27-.27h0a.27.27,0,0,1,.27-.27H334.3a.27.27,0,0,1,.27.27h0A.27.27,0,0,1,334.3,204.92Z"/><path class="cls-9" d="M334.3,206.27H318.23A.27.27,0,0,1,318,206h0a.27.27,0,0,1,.27-.27H334.3a.27.27,0,0,1,.27.27h0A.27.27,0,0,1,334.3,206.27Z"/><path class="cls-9" d="M334.3,207.45H318.23a.27.27,0,0,1-.27-.27h0a.27.27,0,0,1,.27-.27H334.3a.27.27,0,0,1,.27.27h0A.27.27,0,0,1,334.3,207.45Z"/><path class="cls-9" d="M334.3,208.74H318.23a.27.27,0,0,1-.27-.27h0a.27.27,0,0,1,.27-.27H334.3a.27.27,0,0,1,.27.27h0A.27.27,0,0,1,334.3,208.74Z"/><path class="cls-9" d="M335.65,216.41A10.7,10.7,0,0,1,334,217.5a1.32,1.32,0,0,0,.08-.45c0-.19-.16-.28-.32-.36l-.11-.06a.2.2,0,0,0,.05-.23.17.17,0,0,0-.31,0,.25.25,0,0,0,0,.07l-.06,0c.09-.18.18-.35.26-.54a.1.1,0,0,0,0-.11.31.31,0,0,0-.43.06.58.58,0,0,0,0,.56v0q-.18.32-.39.63l0,0-.11-.13a1.9,1.9,0,0,0,.12-.52.1.1,0,0,0-.14-.1.42.42,0,0,0-.26.46.57.57,0,0,0,.06.19,1.75,1.75,0,0,1-.15.26.09.09,0,0,0,0,.14,1.38,1.38,0,0,1-.29.56c-.12.12-.33.21-.47.07a.6.6,0,0,1-.11-.36,6.58,6.58,0,0,1,0-.9,1.37,1.37,0,0,1,.07-.42c0-.08.07-.21.11-.07a.79.79,0,0,1,0,.25.1.1,0,0,0,.2,0c0-.15.08-.46-.09-.55s-.27,0-.33.15a2.64,2.64,0,0,0-.1,1.44c0,.36.16.8.62.69s.59-.66.69-1a.1.1,0,0,0,0-.06h0l.05.05.07.07-.14.19a.1.1,0,0,0,0,.12.23.23,0,0,0,.4-.17.33.33,0,0,0,0-.13q.21-.3.38-.61a.31.31,0,0,0,.24.09h0a.74.74,0,0,0,.17.13,1.14,1.14,0,0,1,.17.09c.09.08.07.16,0,.27a4.34,4.34,0,0,1-.11.43.89.89,0,0,0-.46.49.5.5,0,0,0,.17.56.1.1,0,0,0,.15,0c.11-.28.21-.56.3-.84v0l.53-.29a10.13,10.13,0,0,0,1.31-.92C335.88,216.48,335.75,216.33,335.65,216.41Zm-2.4-.26c0-.08,0-.22.13-.22l-.13.26S333.26,216.16,333.26,216.15Zm.25,2.28c-.08-.16,0-.35.17-.47Q333.6,218.19,333.51,218.43Z"/><path class="cls-9" d="M339.26,227.35H313.47V192.54h25.79Zm-25.5-.3H339V192.83h-25.2Z"/><path class="cls-4" d="M330.43,188.42s-5.2,4.46-3.33,5.14,6.89-2.31,7.87-2.31h3.25s-3.21-3.71-4.9-3.62A7.21,7.21,0,0,0,330.43,188.42Z"/><path class="cls-5" d="M300.82,180.49,294.27,233c-.51-.1-1-.23-1.59-.39l-7.47-2.86h0s2.3-2.38,5.43-10.65S300.82,180.49,300.82,180.49Z"/><path class="cls-2" d="M386.22,366.8H360c-1.4-1.27,1-4.16,3.45-4.35a14.36,14.36,0,0,1,4,.51c.36-5.11,2.42-28.1,10.17-27.18,8.72,1,0,10.12-2.46,15.5-1.83,4-3.75,9.7-4.63,12.4.71.16,1.44.32,2.19.47,1.16-3.79,5.45-16.54,10.92-15.8,6.42.87,3.84,6-.71,9-3.34,2.23-7.44,5.4-9.38,6.94a26.06,26.06,0,0,0,5.12.44C383.18,364.63,385.37,366,386.22,366.8Z"/><path class="cls-25" d="M247.54,38.27s7.59-5.27,13.28,2.59l6.25-2.69s-3.09-4.88-15.21-2.71C243.93,36.87,247.54,38.27,247.54,38.27Z"/><path class="cls-26" d="M240.07,43.42s2.07-8.52,17.62-8.52c0,0-5.83.55-10.38,8.12Z"/><path class="cls-27" d="M302.26,71.47a11.57,11.57,0,0,1-6.71,2.15c-2.67-.14-5.4-2.48-5.51-2.64l-1.95,3.78s5,2.71,9.1,1.71a10.56,10.56,0,0,0,4.15-2.66A3.6,3.6,0,0,0,302.26,71.47Z"/><path class="cls-28" d="M301.81,63.8,307,61.35s-.22,11.1-9.2,14.9C297.83,76.25,303.25,68.41,301.81,63.8Z"/></g></g></svg>