<svg xmlns="http://www.w3.org/2000/svg" viewBox="0 0 355.22 381.09"><defs><style>.cls-1{isolation:isolate;}.cls-2{fill:#040a14;}.cls-3{fill:#20181a;}.cls-4{fill:#ff947d;}.cls-5{fill:#fe4153;}.cls-6{fill:#dc2b33;}.cls-7{fill:#f22c48;}.cls-8{fill:#c61e2b;}.cls-10,.cls-11,.cls-16,.cls-20,.cls-34,.cls-36,.cls-39,.cls-50,.cls-51,.cls-52,.cls-9{fill:none;}.cls-11,.cls-9{stroke:#dc2b33;}.cls-10,.cls-16,.cls-39,.cls-9{stroke-miterlimit:10;}.cls-10{stroke:#a99c91;}.cls-11,.cls-16,.cls-20,.cls-34,.cls-36,.cls-50,.cls-51,.cls-52{stroke-linecap:round;}.cls-11,.cls-20,.cls-34,.cls-36,.cls-50,.cls-51,.cls-52{stroke-linejoin:round;}.cls-12{fill:#ad9d85;}.cls-12,.cls-31,.cls-41{opacity:0.3;}.cls-13{fill:#f1f1ef;}.cls-14{fill:#091121;}.cls-15{fill:#e57967;}.cls-16{stroke:#25d0d8;stroke-width:2.45px;}.cls-17,.cls-32,.cls-38{opacity:0.4;}.cls-18{fill:#e0e0e0;}.cls-19{fill:#172849;}.cls-20{stroke:#632d09;stroke-width:0.22px;}.cls-21{fill:#fff;}.cls-22{opacity:0.2;}.cls-22,.cls-26,.cls-29,.cls-31,.cls-32,.cls-38,.cls-41,.cls-43{mix-blend-mode:multiply;}.cls-23{fill:#42567a;}.cls-24,.cls-38,.cls-43{fill:#121d38;}.cls-25{fill:#112038;}.cls-26,.cls-31{fill:#ffca53;}.cls-26,.cls-43{opacity:0.5;}.cls-27{fill:#c62034;}.cls-28{fill:#fdfeff;}.cls-29{opacity:0.1;}.cls-30{fill:#c7c8c9;}.cls-32{fill:#501c0e;}.cls-33{fill:#f97461;}.cls-34,.cls-50{stroke:#f97461;}.cls-34,.cls-36{stroke-width:0.5px;}.cls-35{fill:#382b28;}.cls-36{stroke:#66453e;opacity:0.47;}.cls-37{fill:#253d63;}.cls-39{stroke:#2c3e60;stroke-width:0.94px;}.cls-40{fill:#2c3e60;}.cls-42{fill:#323332;}.cls-44{fill:#081121;}.cls-45{fill:#15727c;}.cls-46{fill:#419fa3;}.cls-47{fill:#0e5c60;}.cls-48{fill:#fd7557;}.cls-49{fill:#0a3237;}.cls-50{stroke-width:0.65px;}.cls-51,.cls-52{stroke:#55423c;}.cls-51{stroke-width:1.23px;}.cls-52{stroke-width:1.23px;}.cls-53{fill:#55423c;}.cls-54{fill:#2d3243;}.cls-55{fill:#371f18;}</style></defs><title>Ativo 4</title><g class="cls-1"><g id="Camada_2" data-name="Camada 2"><g id="Camada_1-2" data-name="Camada 1"><path class="cls-2" d="M257.06,255.09s17.42-3.48,25.35-.19,52.65.19,58.84-6.19-56.52-20.13-56.52-20.13Z"/><path class="cls-3" d="M254,79.6s-2.3-4.36,5.2-7.16S270,69.51,280.44,76.7s17.83,9.73,23.53,8.41c15.26-3.53,21.27,5,23.2,12s-1.41,19.48-5.91,22.44-12.15-4.94-15.31-.1-10.49-4.32-14.79-1.4,2.36,2.69-8.89,1.2-13.5-1.22-18.45,1.23-14.84-4.35-15.5-24.21S254,79.6,254,79.6Z"/><polygon class="cls-4" points="326.16 265.84 337.18 265.54 334.15 256.74 325.21 257.71 326.16 265.84"/><path class="cls-5" d="M334.93,261a3.48,3.48,0,0,1,0,3.15,3.9,3.9,0,0,0-.48,2.86c.62,1.39,13.36,9.23,15.44,12.74s5.8,1.77,5.23.19c-1.29-3.57-7.26-19.72-9.77-26.5a3.47,3.47,0,0,0-4.27-2.11c-2.84.86-6.79,2.21-8.21,3.39C331.06,256.28,333.59,258.57,334.93,261Z"/><path class="cls-6" d="M343.94,266.86a.56.56,0,0,0-1-.33,8.65,8.65,0,0,0-1.87,3.79,3.87,3.87,0,0,0,1.53,3.68.56.56,0,1,0,.62-.94,2.76,2.76,0,0,1-1-2.6,7.64,7.64,0,0,1,1.61-3.19A.56.56,0,0,0,343.94,266.86Z"/><path class="cls-6" d="M341.88,265.82a.56.56,0,0,0-1-.33,8.65,8.65,0,0,0-1.87,3.79,3.87,3.87,0,0,0,1.53,3.68.56.56,0,1,0,.62-.94,2.76,2.76,0,0,1-1-2.6,7.61,7.61,0,0,1,1.61-3.19A.56.56,0,0,0,341.88,265.82Z"/><path class="cls-6" d="M345.92,268.56a.56.56,0,0,0-1-.33,8.66,8.66,0,0,0-1.87,3.79,3.87,3.87,0,0,0,1.53,3.68.56.56,0,0,0,.62-.94,2.76,2.76,0,0,1-1-2.6,7.61,7.61,0,0,1,1.61-3.19A.56.56,0,0,0,345.92,268.56Z"/><path class="cls-7" d="M272.3,251q1.2,3.6,2.68,7.1a71.51,71.51,0,0,0,10.83,18.1,18.64,18.64,0,0,0,6.19,2.32,14.7,14.7,0,0,0,1.56.22l6.74-1.95,2.82-.82,3.21-.93,21.48-6.22a3,3,0,0,0,2-3.76l-1-3.14c-.3-.95-.54-1.9-.89-2.83-.28-.74-.72-2.07-1.58-2.33-.67-.19-1.42.19-2.09.23a29.43,29.43,0,0,1-3,.05c-1.91-.07-3.83-.12-5.75-.13-3.79,0-7.58.07-11.36.29-2,.12-4.07.28-6.1.46l-.34,0c-1.79.16-2.18.11-2.63-1.47-.06-.19-.11-.4-.17-.63a39.79,39.79,0,0,1-.75-10.1c.05-6.11,0-12.22.21-18.33.17-5.93,1-11.84.89-17.78a78.68,78.68,0,0,0-1.46-13.16,1.17,1.17,0,0,1,0-.2A46.37,46.37,0,0,0,291.9,189c-.11-.31-.22-.61-.35-.92-.22-.58-.45-1.15-.71-1.72l-25.22,3.9S262.71,222.35,272.3,251Z"/><polygon class="cls-4" points="310.54 330.5 314.12 340.27 321.08 334.92 317.53 327.21 310.54 330.5"/><path class="cls-5" d="M317.07,337.3a2.53,2.53,0,0,1-2.11.62c-.95-.14-2.33-.22-3,.39-1.06,1-4.24,14.71-6.75,17.63s0,5.56,1.4,4.74c3.64-2.23,16.29-13.09,21.26-17.1a2.58,2.58,0,0,0,.5-3.5c-1.61-2.3-4.28-5.88-5.88-6.88C320.42,331.93,319.09,335.41,317.07,337.3Z"/><path class="cls-6" d="M315,346.71a.53.53,0,0,0,0-1,8.16,8.16,0,0,0-3.95-.54,3.65,3.65,0,0,0-2.83,2.47.53.53,0,1,0,1,.27,2.61,2.61,0,0,1,2-1.7,7.21,7.21,0,0,1,3.34.48A.53.53,0,0,0,315,346.71Z"/><path class="cls-6" d="M315.28,344.56a.53.53,0,0,0,0-1,8.16,8.16,0,0,0-3.95-.54,3.65,3.65,0,0,0-2.83,2.47.53.53,0,1,0,1,.27,2.61,2.61,0,0,1,2-1.7,7.17,7.17,0,0,1,3.34.48A.53.53,0,0,0,315.28,344.56Z"/><path class="cls-6" d="M314,349a.53.53,0,0,0,0-1,8.16,8.16,0,0,0-3.95-.54,3.65,3.65,0,0,0-2.83,2.47.53.53,0,0,0,1,.27,2.61,2.61,0,0,1,2-1.7,7.17,7.17,0,0,1,3.34.48A.53.53,0,0,0,314,349Z"/><path class="cls-5" d="M296,259.86a11.53,11.53,0,0,1,1.07-3.48c3.05-7.08,7.34-16.53,11.12-25.7,4.55-11,8-22.32,6.05-34.1-.68-4.14-3.69-8.85-3.69-8.85l-26.14.3s-11.76,56-10.57,74.1c.24,4.2,3.45,11.5,7.22,19.7,4.87,10.62,27.51,51.58,27.63,51.8.55,1,3.89-.95,4.5-1.26s1.28-.82,1.92-1.23c1.45-.93,3.18-1.5,4.66-2.44a1.28,1.28,0,0,0,.64-.69,1.3,1.3,0,0,0-.13-.76c-1.18-3-2-6-3.41-8.86A95.63,95.63,0,0,1,310.39,301C309,295.63,308,290.18,306,285c-2.53-6.78-6.6-12.89-8.87-19.77C296.32,262.64,295.87,261.33,296,259.86Z"/><path class="cls-6" d="M319.41,321.89a10,10,0,0,1,2.47,5.27.79.79,0,0,1-.3.77,63.64,63.64,0,0,1-12.95,7.29.8.8,0,0,1-1-.38l-2.52-5a.79.79,0,0,1,.31-1c1.6-.92,6.11-3.47,13-7.05A.8.8,0,0,1,319.41,321.89Z"/><path class="cls-8" d="M322.12,257.49c.72,2.09,2.57,7.88,2.52,11.58a.73.73,0,0,0,.85.74,22.09,22.09,0,0,0,3.34-.73c.88-.37,2.13-2,1.88-3.12s-2.75-10.38-3.5-10.38a46.08,46.08,0,0,0-4.55.93A.76.76,0,0,0,322.12,257.49Z"/><path class="cls-9" d="M307.26,192.94c2.82,8.38,2,17.61-.43,26.11s-6.41,16.46-10,24.55c-2.24,5.1-4.35,10.38-4.75,15.94-.67,9.36,3.54,18.29,7.36,26.86,5.67,12.74,12.21,25.72,16.54,39"/><path class="cls-10" d="M280,207a20.12,20.12,0,0,0-4.35-3"/><path class="cls-10" d="M286.7,191.47l-.6,9.59a9,9,0,0,1-.53,3c-.6,1.41-1.54,1.74-2.75,2.67l.81-14.62"/><path class="cls-11" d="M296.51,259.54a24,24,0,0,0,4.43,15.75"/><path class="cls-12" d="M267.7,190.8s1,2.88,8.17,4.53,28.17-.55,31.67-6.62S274.54,184.55,267.7,190.8Z"/><path class="cls-13" d="M346.19,191.53c-2.23,5.63-7.62,5.78-11.08,5.21v-3.2a1.68,1.68,0,0,1,.37-1.05,8.91,8.91,0,0,1,7.49-3.66,1.74,1.74,0,0,1,1,.38A17.79,17.79,0,0,1,346.19,191.53Z"/><path class="cls-14" d="M220.55,61.67s-3.74,7.48-9.81,10.32-15.86,15.36-12.5,20.39S222.1,75.61,222.1,75.61Z"/><path class="cls-4" d="M223.61,68.09c0-.49-6.92-11.93-6.92-11.93l-5.59,3.58,6.79,22.63"/><path class="cls-4" d="M211.27,59.87c1.37.46,5.62-.56,6.56-5.19.88-4.29,1.88-5.13,2.09-8.33.19-2.77-1.25-.85-2.56,1s-1.39,2.87-2.71,1.34-3.79-9.67-5.52-11.1,1.41,8.93,1.41,8.93-4.08-8.27-5.36-8.22c-1.54.06,2.32,9.14,2.32,9.14s-4.47-6.52-5-6.24c-1,.54,2.38,7.74,2.38,7.74s-3.3-4.33-3.79-3.48S205,56,211.27,59.87Z"/><path class="cls-15" d="M205.34,51l0,0c.1-.18,2.46-4.45,6.9-4.23a.3.3,0,1,1,0,.6c-4.06-.2-6.32,3.88-6.35,3.92a.3.3,0,0,1-.54-.25Z"/><path class="cls-15" d="M214.59,65.18a29.74,29.74,0,0,0,6.81,8.44l-1,2.59-3.81,1.72L211.1,59.76A22.84,22.84,0,0,1,205,53.63c.93,1.06,4.47,4.89,7,5C215,58.81,211.5,59.2,214.59,65.18Z"/><path class="cls-4" d="M334.77,204s-3.55-7.23-5.1-9.59,1-7.28,1-7.28l6.56-1.88a21,21,0,0,0,2.42,14.31C343.48,206.35,334.77,204,334.77,204Z"/><path class="cls-16" d="M311.68,163.15c.55,11.24-6.82,13.23-12,10.3-3.59-2-6.69-6.08-5.45-7.7,2-2.65,5.59.45,6.6,3,1.88,4.72-1.59,11.13-11.1,8.39-3.11-.9-7-2.87-4.67-6.09,2.1-2.87,5.42-1.16,6.81,2.34,3,7.57-17.12,11.37-26.57-4.64"/><g class="cls-17"><path class="cls-18" d="M289,109.4"/></g><path class="cls-4" d="M272.87,109.09a6.89,6.89,0,0,0,0,4.09,5.77,5.77,0,0,0,.43,1,3.75,3.75,0,0,0,.23.39,22,22,0,0,1-1.62,1.86c-.71.7-1.47,1.31-1.87,1.13a9.84,9.84,0,0,0-3.54.29h0c-.85.17-1.54.33-1.69.36h0l0-.1s0,0,0,0-.06-.1-.1-.19c-.12-.24-.35-.66-.72-1.41l-.34-.68a21.26,21.26,0,0,1-1.16-4.35s-.14-.78.1-.92l.58.29c1.3-.75,5.44-.73,9.8-1.77Z"/><path class="cls-19" d="M351.73,186.76c-2.24,2.77-6.29,6.17-14.54,7.11a108.27,108.27,0,0,1-11.91.23c-.57,0-1.93.19-3.43.35l7.15,15s15,36.07,13,39-17.43,2.9-32.9.11-38.08,2.31-47.49,5.81-10.27-3-10.85-9.62.93-86.24-4.31-97.17c-3.26-6.81-40-46.53-47.3-53.91a3.86,3.86,0,0,1-.89-4.07,7.49,7.49,0,0,1,2.66-3.68c3-2.06,11.89-12.34,16.2-16.81a18.77,18.77,0,0,0,1.43-1.67c1.71-2.23,1.71-6.38,2.42-5.62a33.46,33.46,0,0,1,4.07,6c1,1.75,2.18,3.84,3.46,6.29C231,78.92,236,84.43,240.11,88.6a3.91,3.91,0,0,1,.93,1.52l0,.15c.26.83.55,1.65.88,2.47.22.57.47,1.14.73,1.69.07.17.15.33.23.49l.23.47.21.43c.23.46.45.82.61,1.09a4.59,4.59,0,0,0,.32.45c.62.67,1.16,2.42,1.68,4.34,0,0,0,.07,0,.1l.24.94a6.24,6.24,0,0,0,0-2c0-.25-.06-.51-.12-.76a.89.89,0,0,0,0-.23c0-.22-.08-.43-.13-.65s0-.24-.08-.35c-.1-.42-.23-.86-.37-1.3,0-.13-.07-.26-.11-.39-.1-.35-.22-.7-.33-1s-.15-.49-.24-.76l-.05-.18c-.13-.35-.49-1.17-.41-1.32s.24-.45.33-.67l.17.16c1,1,1.7,1.58,1.85,1.79,2.24,3.36,4,12.1,7.27,17a8.09,8.09,0,0,0,1.36,1.61c.14.11.27.23.41.33a9.66,9.66,0,0,0,4.44,1.87h.05a9,9,0,0,0,1,.11,4,4,0,0,1,3.21,1.86l.07.11.12.19s0,0,0,0l.07.09c1,1.43,2.64,2.78,4.81,1.66a2.62,2.62,0,0,0,.74-.88c.45-.67,1-1.62,1.59-2.58.48-.8,1-1.6,1.39-2.25a5.6,5.6,0,0,1,1-1.29l.11,0,.45,0h0l1.66-.16a38.46,38.46,0,0,1,9.22.25c.63.08,1.23.19,1.84.31.77.16,1.51.33,2.25.53,15.18,4,25,16.76,32.16,26.14l1.18,1.53C334.45,156,339.65,165.18,349.72,179c.72,1,1.48,2,2.19,3A4,4,0,0,1,351.73,186.76Z"/><path class="cls-20" d="M274.93,112.82"/><path class="cls-21" d="M277.11,116.75c-.18.34-1,3-1.76,5.51l-1.29,4.3s-.23.27-.58.65l-.33.35a11,11,0,0,1-1.86,1.58,4.84,4.84,0,0,1-.48.26c-1.36.59-1.67,2.57-4.08,1.72a8.54,8.54,0,0,0-1.38-.38c-.35-.07-.66-.11-.94-.14a4.64,4.64,0,0,1-.71-.12,2.61,2.61,0,0,1-.92-.42,4.35,4.35,0,0,1-.48-.37c-1.46-1.3-3.15-.08-2.63-2.58a57.61,57.61,0,0,0,.51-7.59c0-.54,0-1.05,0-1.51,0-1.29,0-2.18,0-2.18h.05c.18,0,.85,0,1.55,0a16.9,16.9,0,0,0,1.72,0c2.11,1.39,5.75,1.91,9.35-2.65.66-.13,1.11-.21,1.44-.26l.55-.09h0s.34.43.74,1C276.38,114.87,277.32,116.33,277.11,116.75Z"/><path class="cls-5" d="M263.17,126.19s4,3.63,9.53-1.2a12.06,12.06,0,0,1,.43,9.55c-.51.95-3.75,13.56-3.75,13.56l-6.84-16.61.83-4.58Z"/><path class="cls-22" d="M269.38,148.1l-5.67-17.61-.63-2-2.89-9c0-.54,0-1.05,0-1.51,0-1.29,0-2.18,0-2.18h.05c.18,0,.85,0,1.55,0l.11.16,2.55,11,.87,3.77Z"/><polygon class="cls-22" points="248.23 110.42 269.65 148.66 254.8 113.05 248.23 110.42"/><path class="cls-23" d="M269.38,148.1c-.33-.49-5.92-11.54-10-19.37-1.91-3.63-3.51-6.56-4.13-7.43-1-1.33-2.25-3.54-3.34-5.46-.6-1.08-1.15-2.06-1.52-2.77v0c-.2-.36-.35-.63-.44-.82a1.36,1.36,0,0,1-.13-.23v0H254a8.09,8.09,0,0,0,1.36,1.61c.14.11.27.23.41.33a9.66,9.66,0,0,0,4.44,1.87l4.19,14.78.16.54,1.69,6h0l1.3,4.56h0Z"/><path class="cls-24" d="M267.56,141.69c-3.21-6.14-11.23-20.73-12.46-22.49a58.35,58.35,0,0,1-3.24-6,9.94,9.94,0,0,0,1.33.42,48.36,48.36,0,0,0,2.72,5c1,1.44,6.59,11.5,10.34,18.49h0Z"/><path class="cls-25" d="M246.37,104.22a14.89,14.89,0,0,0-.63-2.42,22.53,22.53,0,0,0-1.45-3.34c-.54-1.15-1.34-2.2-1.89-3.34-.72-1.51-.82-3.26-1.32-4.86l-.15-.47a4.84,4.84,0,0,0-.56-.81c.38.38,1.18,1.06,1.54,1.41.69.69,1.35,1.32,1.93,1.87l.34.32.54.52c-.09.21-.21.44-.33.67.16.52.31,1,.46,1.5a31,31,0,0,1,1.43,5.48A19.31,19.31,0,0,1,246.37,104.22Z"/><path class="cls-26" d="M242,92.73c.22.57.47,1.14.73,1.69Q242.33,93.63,242,92.73Z"/><path class="cls-26" d="M242.92,94.92l.23.46c-.08-.14-.16-.29-.23-.45Z"/><path class="cls-26" d="M244.8,95.08c-.13-.35-.49-1.17-.41-1.32C244.53,94.22,244.66,94.67,244.8,95.08Z"/><path class="cls-26" d="M244.3,97.35c.62.67,1.16,2.42,1.68,4.34a22.59,22.59,0,0,0-1.27-3.42c-.22-.48-.47-.93-.73-1.38A4.6,4.6,0,0,0,244.3,97.35Z"/><path class="cls-27" d="M329,214.93s-5.68-2.73-5.39-2.46,1.85,2.19,1.85,2.19-2.7,1.13-2.47,1.29,8.13,1.68,8.13,1.68Z"/><path class="cls-28" d="M354.08,202.65l-33.54,34.92-1.31-1-6.37-4.73L328,216.1l1.78-1.85,16.61-17.31c1.06-1.1,3.64-.71,5.76.85a4.2,4.2,0,0,1,.39.32l0,0a3.86,3.86,0,0,1,.43.4C354.48,200,355,201.7,354.08,202.65Z"/><path class="cls-27" d="M328.69,215.37s6.29,1.36,6.45,7l3.11-3.23a7.78,7.78,0,0,0-7.13-6.29Z"/><path class="cls-29" d="M354.08,202.65l-33.54,34.92-1.31-1a13.44,13.44,0,0,0-.41-2.92s4.45-4.12,13.33-13.09c.7-3.24-4.17-4.48-4.17-4.48l1.78-1.85,3.91,1.23a3.92,3.92,0,0,0,4-1c4-4,13.71-13.76,15.37-16C354.48,200,355,201.7,354.08,202.65Z"/><path class="cls-30" d="M320.54,237.57c-.9.95-2.9.8-4.8-.24a7.91,7.91,0,0,1-1-.62c-2.13-1.58-3-3.75-1.93-4.85s3.45-.75,5.54.72a.93.93,0,0,1,.21.14C320.73,234.28,321.59,236.47,320.54,237.57Z"/><path class="cls-22" d="M337.42,193.13c-16.32-.79-19.22-.69-23-14.65-3.23-12-14-29.38-13.77-28.8C313,177,311.82,181.61,312.32,186.34c.44,4.2,0,8.62,6.65,8.42a11.23,11.23,0,0,0,2.86-.31h0c1.5-.16,2.87-.36,3.43-.35a107.09,107.09,0,0,0,11.91-.23,25.68,25.68,0,0,0,4.23-.8l1.55-.5-1.44.46A17.88,17.88,0,0,1,337.42,193.13Z"/><path class="cls-22" d="M342,248.43c-2,2.91-17.43,2.9-32.9.11s-38.08,2.31-47.49,5.81-10.27-3-10.85-9.62.93-86.24-4.31-97.17c-3.26-6.81-40-46.53-47.3-53.91a3.86,3.86,0,0,1-.89-4.07,7.49,7.49,0,0,1,2.66-3.68c3-2.06,11.89-12.34,16.2-16.81,0,0-13.28,17.85-13.58,20.71s7.14,4.48,14.68,12.54,35.58,32.24,34.05,51.33c-1.18,14.68,0,29.78,1.07,44.42.62,8.34.81,16.71,1.86,25,.62,4.94,1.19,17.16,6.81,19.41a9.39,9.39,0,0,0,3.73.44,124,124,0,0,0,25.72-3.42c9.6-2.29,17-1.25,25.79,3.12C324.48,246.29,333.66,252.57,342,248.43Z"/><path class="cls-31" d="M263.54,115.83a31.8,31.8,0,0,1-3.26,0h-.05a9.66,9.66,0,0,1-4.44-1.87,24.25,24.25,0,0,0,5.71-.46c.44-.09.48-.08.94-.19l.05.12S262.86,114.43,263.54,115.83Z"/><path class="cls-32" d="M263.54,115.83a31.8,31.8,0,0,1-3.26,0h-.05a9.66,9.66,0,0,1-4.44-1.87,24.25,24.25,0,0,0,5.71-.46c.44-.09.48-.08.94-.19l.05.12S262.86,114.43,263.54,115.83Z"/><path class="cls-22" d="M275.67,113.85l-2.36,12.8-.17.92L269.41,148l0,.11,1.9-18.92.33-3.32,1.28-12.66c.66-.13,1.11-.21,1.44-.26l.55-.09h0S275.26,113.25,275.67,113.85Z"/><path class="cls-22" d="M274.83,183.12S280,208.52,305,207C295.62,203.18,282,197.33,274.83,183.12Z"/><path class="cls-22" d="M289.91,113.76,269.38,148.1l16.44-35.19c.63.08,1.23.19,1.84.31C288.42,113.38,289.17,113.56,289.91,113.76Z"/><path class="cls-23" d="M287.66,113.22,269.38,148.1l.46-3.19.45-3.09,4.15-28.93h0l2.15-.21a39.55,39.55,0,0,1,8.38.12l1,.15C286.57,113,287.12,113.12,287.66,113.22Z"/><path class="cls-24" d="M286,112.94l-16.19,32,.45-3.09,14.69-29Z"/><path class="cls-4" d="M334.37,203s.74,2.52,1,3.84a33.81,33.81,0,0,0,.76,3.49c.41,1.29,2.92,3.54,3.44,4.55s1.26.63,1.4-.3-1.66-4.44-1.66-4.44,2.48,1.5,3,2.39a6.92,6.92,0,0,1,.65,1.48,2.28,2.28,0,0,0,1.61.26,1.45,1.45,0,0,0,.92-1,2.29,2.29,0,0,0,1.47-.49,2.69,2.69,0,0,0,.76-1.77,1.39,1.39,0,0,0,1.27-.65,3.17,3.17,0,0,0,.19-1.79s.36-.19.32-1a8,8,0,0,0-3-4.5c-1.73-1.23-5.74-2.07-7.24-3.7S334.37,203,334.37,203Z"/><path class="cls-33" d="M345.62,213a8.7,8.7,0,0,0-1.15-2.75,4.72,4.72,0,0,0-2.57-1.6c-.21-.07-.31.37-.09.44a4.38,4.38,0,0,1,2.42,1.51,8.35,8.35,0,0,1,1.07,2.56c.08.28.4.06.33-.16Z"/><path class="cls-33" d="M347.8,210.81c-.61-1.85-1.93-3.52-4-3.68-.22,0-.31.43-.09.44,2,.15,3.2,1.73,3.79,3.5.09.26.36-.06.3-.26Z"/><path class="cls-33" d="M349.2,208.45a6,6,0,0,0-3.68-3.32c-.2-.08-.3.36-.09.44a5.68,5.68,0,0,1,3.48,3.14c.1.26.37-.06.3-.26Z"/><path class="cls-23" d="M268.35,150.75c2.27,29.12,3.91,59.58,15.16,86.9.24.57.84-.15.66-.58-11.19-27.16-12.8-57.48-15.07-86.43-.05-.65-.8-.46-.75.11Z"/><path class="cls-34" d="M262.53,111.12s5.52.87,9.48-1.89"/><path class="cls-4" d="M267.1,78.36c-9.17-1.94-11.65.86-12.69,8.73s-2.75,17.45,1.39,22.27,18.37,4.11,20.35-4.49,2.25-14.44,3.08-17.19S270.37,79,267.1,78.36Z"/><path class="cls-34" d="M259.54,95.16s0,3.17-1.32,4.63a13.51,13.51,0,0,0,1.45,1"/><path class="cls-3" d="M254,80.61a7.16,7.16,0,0,0,6.6,5.48c5.65.49,11.81,4.65,13.72,6.88,3.34,3.89,6.73.95,6.73.95s-.17-5.34-.38-8.31-8.84-9.26-12.23-9.86S254.46,78.7,254,80.61Z"/><ellipse class="cls-35" cx="264.78" cy="95.02" rx="1.17" ry="0.83" transform="translate(149.36 351.57) rotate(-85.52)"/><ellipse class="cls-35" cx="255.9" cy="94.8" rx="1.17" ry="0.83" transform="matrix(0.08, -1, 1, 0.08, 141.39, 342.51)"/><path class="cls-3" d="M269.73,91.38a.5.5,0,0,1-.29-.09c-2.07-1.45-6-.53-6.08-.52a.5.5,0,0,1-.32-.94c4.27-1.87,6.92.59,7,.7a.5.5,0,0,1-.35.86Z"/><path class="cls-3" d="M253.17,92a.5.5,0,0,1-.36-.85,5.56,5.56,0,0,1,5.56-1.36.5.5,0,0,1-.24,1,5.5,5.5,0,0,0-4.61,1.1A.5.5,0,0,1,253.17,92Z"/><path class="cls-4" d="M282.46,97.48c.73,2.78-1.5,6.56-3.67,7.12s-4.69-.1-4-3.45c.61-2.81.44-5.49,2.61-6.06S281.74,94.7,282.46,97.48Z"/><path class="cls-21" d="M260.19,102.1a12,12,0,0,1-3.11-.12,4,4,0,0,0,0,.69,3.3,3.3,0,1,0,6.54-.54,4,4,0,0,0-.14-.75A11.54,11.54,0,0,1,260.19,102.1Z"/><ellipse class="cls-4" cx="266.22" cy="98.59" rx="2.61" ry="1.63" transform="translate(-7.26 22.44) rotate(-4.76)"/><path class="cls-4" d="M256.44,98.72c.14-.89-.91-1.79-2.33-2a4,4,0,0,0-.84,0c-.07,1.07-.11,2.13-.11,3.16a4.14,4.14,0,0,0,.45.1C255,100.16,256.31,99.61,256.44,98.72Z"/><path class="cls-36" d="M258.4,81.28c2.89,2.15,6.59,2.81,10,3.9,4.44,1.4,8.85,3.82,11.11,7.89"/><path class="cls-36" d="M263.53,80.59c1.87,1.71,4.6,2,7.08,2.48a40.09,40.09,0,0,1,6.45,2,29.78,29.78,0,0,1,9,5.11,13.06,13.06,0,0,1,4.65,9"/><path class="cls-36" d="M275.68,77.17c2,2.57,5.15,4,8.23,5.11s6.34,1.95,9.55,2.78a43.21,43.21,0,0,0,8,1.55c2.43.16,4.89-.09,7.31.23A19,19,0,0,1,315.05,89a15.74,15.74,0,0,1,3.4,2.33A11.79,11.79,0,0,1,322,101.66"/><path class="cls-33" d="M281,97.46c-2.38-3.08-5.82,2.43-3.45,3.27.79.28,2.28-1.12,1.3-1.67-.46-.26-1,.19-1.27.53a3.61,3.61,0,0,0-.44,2.44c0,.3.36.21.34-.05s0-.49,0-.74.07-1.23.36-1.37l.68.18L277.2,99c-.06-.36.36-.94.57-1.18a1.92,1.92,0,0,1,3,0c.16.2.38-.18.25-.35Z"/><path class="cls-37" d="M297.77,28.73s-.27.6-1.64,3.29l0,0-.64,1.24c-.78,1.52-1.82,3.52-3.2,6.16,4,14.56,14.19,17.61,21.85,17.67a31.35,31.35,0,0,0,9.45-1.38l3-5.34h0L329.12,46,307,33.82,298.28,29Z"/><path class="cls-38" d="M298.28,29a15.45,15.45,0,0,0-2.14,3l0,0c-.22.39-.43.8-.64,1.24,7.49,20.41,31.12,17.11,31.12,17.11h0L329.12,46Z"/><path class="cls-22" d="M297.77,28.73s-.27.6-1.64,3.29l0,0-.64,1.24c-.78,1.52-1.82,3.52-3.2,6.16,4,14.56,14.19,17.61,21.85,17.67-9.9-3.5-4.55-13.31-4.55-13.31s-1.17-4.86-2.55-10L298.28,29Z"/><polygon class="cls-37" points="284.25 16.37 309.58 43.82 333.39 46.43 347.42 47.97 321.96 19.65 284.25 16.37"/><path class="cls-22" d="M284.25,16.37l25.33,27.45,23.81,2.61C298.72,33.51,322,19.65,322,19.65Z"/><polyline class="cls-39" points="316.25 30.81 332.15 46.62 334.06 50.92"/><path class="cls-40" d="M335.33,52.92l6.77,11a1.18,1.18,0,0,1-.62,1.73l-1.81.63a1.18,1.18,0,0,1-1.51-.78l-4-13.71,1,.93A1.18,1.18,0,0,1,335.33,52.92Z"/><g class="cls-41"><path class="cls-42" d="M340.52,66c-.89-2.19-1.81-4.36-2.75-6.52q-.66-1.54-1.34-3.07c-.62-1.41-1.25-2.81-1.87-4.21l-.23.12-.23.12v0l.51.88h0l1.56,2.65.25.42c.62,1,1.22,2.09,1.85,3.12L340.41,63l1.47,2.38.07-.07c-.43-.81-.88-1.62-1.32-2.43l-2-3.6c-.66-1.2-1.36-2.39-2-3.59l-2-3.57-.23.12-.23.12v0c.24.52.48,1,.71,1.56h0c.85,1.88,1.7,3.76,2.58,5.62,1,2.13,2,4.27,3.05,6.38Z"/></g><circle class="cls-24" cx="334.18" cy="51.76" r="1.5" transform="matrix(0.99, -0.15, 0.15, 0.99, -3.98, 49.47)"/><circle class="cls-43" cx="334.18" cy="51.76" r="1.5" transform="matrix(0.99, -0.15, 0.15, 0.99, -3.98, 49.47)"/><ellipse class="cls-44" cx="316.25" cy="30.81" rx="1.26" ry="1.76" transform="translate(266.93 344.71) rotate(-86.63)"/><path class="cls-2" d="M53.35,266.59s14.74,5.13,28.48,3.87,23.42-2.61,27.68-1.45,36-2,33-9-35.24-9-35.24-9Z"/><path class="cls-14" d="M137.76,68.16s3-5.77,12.48,8.47c3.75,4.63,6,7.62,10.31,12.19s11.93,9.64,6.58,15.42c.06.39-11.77,6.14-13,1.17-.12-.51-5.48,1.33-6.82-.21s-4.1-.88-4.49-8S135.19,72.22,137.76,68.16Z"/><path class="cls-4" d="M137.81,74c0-.49,7.72-11.43,7.72-11.43l5.33,4-8.32,22.12"/><path class="cls-4" d="M150.69,66.61c-1.4.36-5.56-.94-6.19-5.63-.58-4.34-1.52-5.25-1.52-8.46,0-2.78,1.3-.76,2.48,1.15s1.19,3,2.61,1.53,4.45-9.39,6.26-10.69-2,8.82-2,8.82,4.63-8,5.91-7.83c1.53.17-2.94,9-2.94,9s4.9-6.2,5.42-5.89c1,.61-2.91,7.56-2.91,7.56s3.59-4.1,4-3.21S157.21,63.22,150.69,66.61Z"/><path class="cls-33" d="M157.2,58.19v0c-.09-.19-2.15-4.61-6.6-4.69a.3.3,0,1,0,0,.6c4.06.08,6,4.3,6.06,4.34a.3.3,0,0,0,.56-.21Z"/><path class="cls-4" d="M147,71.68a29.74,29.74,0,0,1-7.37,8l.86,2.65,3.68,2,6.68-17.75a22.84,22.84,0,0,0,6.49-5.7c-1,1-4.8,4.57-7.34,4.53C147.06,65.3,150.5,65.92,147,71.68Z"/><path class="cls-14" d="M33.88,75.06a.31.31,0,0,0-.46-.23,28.89,28.89,0,0,0-11.15,13.5c-4,8.84-4.45,9.56-6.17,11.89s-7.9,12.17-3.84,14.89c4.22,3,7.11,2.13,7.52,2s2.14.87,4.81-1.52a53.92,53.92,0,0,0,4.39-4c2-2.06-.58-.32,2.87-3.82s3.37-2.29,4.32-5.32C37,99.61,34.32,78.44,33.88,75.06Z"/><path class="cls-27" d="M16.6,59.51s-5.4-2.89-5.13-2.62,1.7,2.21,1.7,2.21-2.68,1-2.46,1.15,7.83,2,7.83,2Z"/><path class="cls-4" d="M81.54,140.7,74.7,162.36c-8-2.65-33.42-26.38-40.3-38.32-1.75-3-3.53-8.05-5.2-13.83-.3-1-.59-2.08-.89-3.15-4.45-16-8.64-35.45-9.23-37-.39-.45-.1-1.54-.32-2.06a.49.49,0,0,0-.05-.12c-2.87-4-2.61-6.88-2.17-8.73,1.2-5.05,6.61-6.59,8.3-5.85,3.69,1.59,4.69,7.48,4,10.1-.32,1.13-2,3.17-1.63,4.41C31.05,80.5,42.7,103.44,45.83,115.5c4.39,5.84,13.55,12.82,23.38,18.77C73.25,136.71,77.72,138.47,81.54,140.7Z"/><path class="cls-4" d="M25.67,63.27c-.29-.32-.91-1.62.43-3.31.22-.28.57-.69.55-1s-.71-.92-.92-1.61c-.34-1.14.6-2.22,1-1.72,1.16,1.29,2.06,1.67,2.56,2.66a13.18,13.18,0,0,1-.54,5.16"/><path class="cls-4" d="M25.67,63.27c-.29-.32-.91-1.62.43-3.31.22-.28.57-.69.55-1s-.71-.92-.92-1.61c-.34-1.14.6-2.22,1-1.72,1.16,1.29,2.06,1.67,2.56,2.66a13.18,13.18,0,0,1-.54,5.16"/><path class="cls-4" d="M31.07,109.25l-1.89,1c-.3-1-.59-2.08-.89-3.15-4.45-16-8.64-35.45-9.23-37-.41-.48-.05-1.7-.38-2.17v0c1.41-.72,1.61-1.22,1.83-.43L22,68.66a1,1,0,0,1,.33.51L29.79,95.6Z"/><path class="cls-28" d="M41.5,48.64l-34,32.52-1.24-1-6-4.86L15.59,60.61l1.81-1.72L34.26,42.77c1.08-1,3.56-.54,5.56,1.07a4.08,4.08,0,0,1,.36.32l0,0a3.77,3.77,0,0,1,.4.41C42,46.09,42.41,47.76,41.5,48.64Z"/><path class="cls-27" d="M16.31,59.93s6.05,1.59,6,7.07l3.15-3a7.56,7.56,0,0,0-6.66-6.41Z"/><path class="cls-29" d="M41.5,48.64l-34,32.52-1.24-1a13.07,13.07,0,0,0-.27-2.86s4.49-3.82,13.5-12.16c-2.77,1.07-3.86-4.52-3.86-4.52l1.81-1.72,4.79,2,1.13.18S38.48,47.23,40.63,44.6C42,46.09,42.41,47.76,41.5,48.64Z"/><path class="cls-4" d="M26.11,58.63l-.21.26a1.84,1.84,0,0,0-.17.22c-.79.93-1.19,1.46-1.74,2l-.22.21a15.66,15.66,0,0,1-1.62,1.4,2.49,2.49,0,0,1-.57.36l-.21.09c-.33.16-1.4.87-1.74,1a1.41,1.41,0,0,1-.71.05,1.27,1.27,0,0,1-.58-.38c-.74-.72-2.19-3-2-4.05A8.8,8.8,0,0,1,20.4,54a5.14,5.14,0,0,1,3.68-.95,4.05,4.05,0,0,1,3,2.72A3.28,3.28,0,0,1,26.11,58.63Z"/><path class="cls-4" d="M21.57,63.1l-.21.09a4.06,4.06,0,0,0-.07-.47A12,12,0,0,0,20.76,61c-.41-1.12-.93-2.19-1.38-3.31a15.18,15.18,0,0,1,1.7,3.19,8.49,8.49,0,0,1,.48,1.75A4.1,4.1,0,0,1,21.57,63.1Z"/><path class="cls-4" d="M24,61.14c0-.05,0-.11,0-.15a6.53,6.53,0,0,0-.58-1.84,12.15,12.15,0,0,0-1-1.6,15.43,15.43,0,0,0-1.22-1.44c.66,1.07,1.39,2.09,1.93,3.2A7.19,7.19,0,0,1,23.72,61a1.38,1.38,0,0,1,0,.33Z"/><path class="cls-4" d="M25.89,58.88a2.15,2.15,0,0,0-.06-.51,5.39,5.39,0,0,0-.62-1.51A7.41,7.41,0,0,0,23,54.56c.37.39.71.8,1,1.2A9.27,9.27,0,0,1,24.93,57a5.29,5.29,0,0,1,.8,2Z"/><path class="cls-29" d="M26.6,55.47s-2.28.33-1.52,2.4a3.4,3.4,0,0,1-.07,3c-.19.68-.46,2.71.21,3.31a4.77,4.77,0,0,0,1.6-3.94c0-.53.25-1.81.28-2.58A8.34,8.34,0,0,0,26.6,55.47Z"/><path class="cls-4" d="M26,65c-.29-.32-1.25-3.37.09-5,.22-.28.57-.69.55-1s-.71-.92-.92-1.61c-.34-1.14.6-2.22,1-1.72,1.16,1.29,2.06,1.67,2.56,2.66a13.18,13.18,0,0,1-.54,5.16"/><path class="cls-30" d="M7.95,80.82c-.83.94-2.75.87-4.6-.06a7.58,7.58,0,0,1-.94-.56c-2.09-1.44-3-3.49-2-4.58s3.28-.84,5.33.49a.88.88,0,0,1,.21.12C8,77.66,8.92,79.72,7.95,80.82Z"/><path class="cls-45" d="M156.64,283.61,134,290.55s-14.32,3.9-17.78,4.53a8.69,8.69,0,0,1-8.25-2.56c-8.37-13.35-13-29.92-15.6-45.26a233.87,233.87,0,0,1-2.91-44.77c0-.65,0-1,0-1l8.26-1.41L116.14,197c.23.49.45,1,.65,1.51a48.42,48.42,0,0,1,2.67,8.6,1.88,1.88,0,0,0,0,.21,83.07,83.07,0,0,1,1.76,13.91c.26,6.29-.57,12.57-.65,18.86-.08,6.46,0,12.94.08,19.41a42.12,42.12,0,0,0,1,10.69c.65,2.46.92,2.41,3.36,2.14,2.15-.22,4.31-.43,6.45-.59,4-.28,8-.45,12-.48,2,0,4.07,0,6.09,0a31.22,31.22,0,0,0,3.15-.1c.71-.05,1.5-.47,2.21-.27.92.25,1.4,1.66,1.71,2.44.39,1,.66,2,1,3l1.08,3.31A3.16,3.16,0,0,1,156.64,283.61Z"/><polygon class="cls-4" points="154.11 280.88 165.72 279.54 161.71 270.54 152.36 272.38 154.11 280.88"/><path class="cls-46" d="M162.93,275a3.69,3.69,0,0,1,.33,3.32c-.36,1-.68,2.27-.24,3.06.78,1.41,14.95,8.5,17.48,12s6.29,1.33,5.54-.28c-1.69-3.65-9.49-20.13-12.77-27.06a3.68,3.68,0,0,0-4.7-1.84c-2.92,1.17-7,3-8.35,4.34C158.4,270.34,161.28,272.52,162.93,275Z"/><path class="cls-45" d="M173,280.31a.59.59,0,0,0-1.07-.26,9.16,9.16,0,0,0-1.62,4.17,4.1,4.1,0,0,0,2,3.74.6.6,0,1,0,.57-1,2.93,2.93,0,0,1-1.33-2.65,8.1,8.1,0,0,1,1.4-3.52A.59.59,0,0,0,173,280.31Z"/><path class="cls-45" d="M170.71,279.4a.6.6,0,0,0-1.07-.26,9.17,9.17,0,0,0-1.62,4.17,4.1,4.1,0,0,0,2,3.74.59.59,0,1,0,.57-1,2.93,2.93,0,0,1-1.33-2.65,8.06,8.06,0,0,1,1.4-3.52A.59.59,0,0,0,170.71,279.4Z"/><path class="cls-45" d="M175.22,281.92a.6.6,0,0,0-1.07-.26,9.17,9.17,0,0,0-1.62,4.17,4.1,4.1,0,0,0,2,3.74.6.6,0,0,0,.57-1,2.93,2.93,0,0,1-1.33-2.65,8.06,8.06,0,0,1,1.4-3.52A.59.59,0,0,0,175.22,281.92Z"/><path class="cls-47" d="M149.3,270.46a16,16,0,0,1,5.25-1,1.15,1.15,0,0,1,1,.74q2,5,3.54,10.14a7.59,7.59,0,0,1,.37,4.43c-.08.4-5.77,1.66-6.32,1.58-1.91-.28-1.37-1.53-1.73-3.13-.92-4.12-1.79-7.51-2.83-11.5A1.07,1.07,0,0,1,149.3,270.46Z"/><path class="cls-45" d="M129.39,336.7a1.28,1.28,0,0,1-.47.84c-1.26,1.3-2.86,2.27-4.1,3.57-.54.56-1,1.15-1.63,1.69s-3.42,3.2-4.21,2.34c-.18-.2-32.69-35.83-40.12-45.32-5.75-7.32-10.71-13.87-12-18-4.93-15.92-6.75-64.51-7.09-74.87,0-1.26-.06-2-.06-2l26.72-6s.28,1.2.72,3.1c.15.64.32,1.37.49,2.15,2,8.79,5.93,25.57,5.86,25.58q-.47,9.13-1.5,18.22c-.84,7.52-1.93,15-3.23,22.46a12.07,12.07,0,0,0-.24,3.75c.22,1.49,1,2.71,2.47,5.1,3.93,6.36,9.48,11.5,13.64,17.69,3.16,4.72,5.47,10,8.17,15a98.47,98.47,0,0,0,10.66,15.92c2.11,2.56,3.64,5.36,5.54,8.07A1.27,1.27,0,0,1,129.39,336.7Z"/><path class="cls-4" d="M120.62,345l7.31,8.53c4.23.93,6.31-1.82,6.5-7.8l-6.9-7.53Z"/><path class="cls-46" d="M131.15,348.17s-3.37-1.15-5.87,2.8,1.14,7.31,1.14,7.31,2.48,10,2.57,12.78c.17,5.54,1.31,8,2.36,9.29,2.19,2.78,10.27-2.68,9.92-8.93s-.48-21.11-1.36-22.73c-1.44-2.66-7.86-5.82-7.86-5.82A4.55,4.55,0,0,1,131.15,348.17Z"/><path class="cls-48" d="M134.49,361.12A.68.68,0,0,0,134,360a10.48,10.48,0,0,0-4.93,1.38,4.69,4.69,0,0,0-2.08,4.35.68.68,0,1,0,1.35-.2,3.35,3.35,0,0,1,1.51-3,9.26,9.26,0,0,1,4.18-1.13A.68.68,0,0,0,134.49,361.12Z"/><path class="cls-48" d="M133.76,358.42a.68.68,0,0,0-.5-1.16,10.48,10.48,0,0,0-4.93,1.38,4.69,4.69,0,0,0-2.08,4.35.68.68,0,1,0,1.35-.2,3.35,3.35,0,0,1,1.51-3,9.21,9.21,0,0,1,4.18-1.13A.68.68,0,0,0,133.76,358.42Z"/><path class="cls-48" d="M134.56,364.27a.68.68,0,0,0-.5-1.16,10.48,10.48,0,0,0-4.93,1.38,4.69,4.69,0,0,0-2.08,4.35.68.68,0,0,0,1.35-.2,3.35,3.35,0,0,1,1.51-3,9.21,9.21,0,0,1,4.18-1.13A.68.68,0,0,0,134.56,364.27Z"/><path class="cls-45" d="M134.49,361.12A.68.68,0,0,0,134,360a10.48,10.48,0,0,0-4.93,1.38,4.69,4.69,0,0,0-2.08,4.35.68.68,0,1,0,1.35-.2,3.35,3.35,0,0,1,1.51-3,9.26,9.26,0,0,1,4.18-1.13A.68.68,0,0,0,134.49,361.12Z"/><path class="cls-45" d="M133.76,358.42a.68.68,0,0,0-.5-1.16,10.48,10.48,0,0,0-4.93,1.38,4.69,4.69,0,0,0-2.08,4.35.68.68,0,1,0,1.35-.2,3.35,3.35,0,0,1,1.51-3,9.21,9.21,0,0,1,4.18-1.13A.68.68,0,0,0,133.76,358.42Z"/><path class="cls-45" d="M134.56,364.27a.68.68,0,0,0-.5-1.16,10.48,10.48,0,0,0-4.93,1.38,4.69,4.69,0,0,0-2.08,4.35.68.68,0,0,0,1.35-.2,3.35,3.35,0,0,1,1.51-3,9.21,9.21,0,0,1,4.18-1.13A.68.68,0,0,0,134.56,364.27Z"/><path class="cls-49" d="M89.86,204.55c-1.32.25-2.67.48-4,.67s-2.51.33-3.73.46c-8,.81-15,.4-19.39-1,.07-1.22.11-1.9.11-1.9l26.35-3.45s.16,1.18.42,3.06l16.84-5.15C106.69,197.71,97.2,203.14,89.86,204.55Z"/><path class="cls-47" d="M128.09,332.8c.84,1.22,1.77,2.4,2.59,3.62a1.32,1.32,0,0,1-.15,1.62q-3.52,3.81-7.33,7.34a7.81,7.81,0,0,1-3.81,2.28c-.4.11-4-4.22-4.22-4.73-.6-1.76.76-1.86,2-2.88,3.15-2.51,5.93-4.93,8.93-7.51A1.32,1.32,0,0,1,128.09,332.8Z"/><path class="cls-47" d="M88.93,274.89a11.87,11.87,0,0,0-5.13.11c-.46.11-.51,1.11,0,1a11.38,11.38,0,0,1,4.93-.12c.48.09.69-.88.21-1Z"/><path class="cls-47" d="M122.78,272c-3.26.25-5.25,3-6.26,5.85-.19.52.42,1,.64.41.92-2.6,2.64-5.05,5.61-5.28.47,0,.54-1,0-1Z"/><path class="cls-19" d="M167.14,104.24c-3.62,1.37-5-.65-7.23-6.43s-4-7-12.17-12.68-9.38-10.29-9.83-17.19c-.82.89-3.13,8.91-11.66,23.15-5.91,11.69-11.81,18.68-16.6,23-.9.81-1.75,1.53-2.57,2.16-1.29,1-2.45,1.83-3.45,2.49-.79.52-1.49,1-2.09,1.32a32.5,32.5,0,0,1-6.39,3.09c-2.21.77-4,1-4.65.47-3.31,2.5-5.92,2.65-7.76,2.12a6.35,6.35,0,0,1-3.16-2,12.39,12.39,0,0,1-4.23,1.37,13.36,13.36,0,0,1-4.86-.27,24.8,24.8,0,0,1-7.16-3.11c-.77-.46-1.53-1-2.28-1.49-2-1.39-4-2.91-5.86-4.33C48.86,112.08,37.88,89.11,33.86,75c.4,1.4-.82,3.81-1.29,5.07a115.9,115.9,0,0,1-5,11.23c-.91,1.81-1.84,3.61-2.9,5.35a0,0,0,0,1,0,0,35.52,35.52,0,0,0-3.6,6.74c-.88,2.53-1.46,5.19-2.22,7.76a16.1,16.1,0,0,1-.78,2.17c-.39.85-.9,1.77-1.83,2-3.25.79-4.53-.67-4.75-.95.18.38.88,1.28,1.1,1.63a30.57,30.57,0,0,0,3.62,4.63,37.77,37.77,0,0,0,7.26,6c8.4,5.39,28,25.61,29.91,30.73,3.56,9.31,3.47,19.34,1.88,29-1.74,18.6-5.1,60.77-1.93,80.17,0,0,1.64.24,2.83.38,7.76.71,28.31,1.9,40.08-4,14-7,36.9-7.38,46.27-2.9-1.48-4-3-8-4.34-12-.71-2.15-1.38-4.33-1.94-6.54-2.13-8.18-4-16.45-6-24.67-3.12-12.86-5.88-25.8-8.08-38.84-.63-3.73-1.34-7.55-1.92-11.39a85.8,85.8,0,0,1-1.17-13.14c0-6.89,4.07-10.66,12-19.21s27-23.47,36.07-30A0,0,0,1,0,167.14,104.24Z"/><path class="cls-4" d="M89.91,117.31l.62,6.14c.3,3-.49,4.9-4.5,5.33-4.52.48-5.83-2.46-6.14-3.87-.24-1.09-.45-4.44-.45-4.44Z"/><path class="cls-22" d="M87.2,162.49C72,147.68,63.58,127.08,61.06,120.23c.76.53,1.51,1,2.28,1.49a24.8,24.8,0,0,0,7.16,3.11C73.48,131,78.62,142.28,87.2,162.49Z"/><path class="cls-22" d="M109.66,114.1c-.27,1.16-9.24,37.95-22.46,48.39,5.34-12,13.18-34.27,16.44-43.73,1-.66,2.17-1.48,3.45-2.49C107.91,115.63,108.77,114.91,109.66,114.1Z"/><path class="cls-23" d="M105.33,117.42h0c-.47.33-.92.64-1.35.92l-.07,0h0c-.9.6-1.7,1.09-2.36,1.49A32.5,32.5,0,0,1,95.18,123l-9.06,12.07s0,.51.07,1.46c.08,1.68.21,4.71.38,8.69-.89-9.48-2.48-16.54-3.8-19.63a6.41,6.41,0,0,1-3.16-2,12.26,12.26,0,0,1-4.23,1.37,15.7,15.7,0,0,1-8.73-1.63c-.54-.24-1.07-.51-1.6-.8s-1.13-.62-1.69-1c0,0,13.6,32,23.84,41,10.38-9.1,19.61-45.25,19.9-46.38C106.48,116.59,105.9,117,105.33,117.42Z"/><path class="cls-21" d="M95.18,123l-2,9.9-6,29.61-.58-1.85L77.91,133l-2.54-8h0a12.26,12.26,0,0,0,4.23-1.37s4,5.19,10.92-.09a3.22,3.22,0,0,0,2.46.15A16,16,0,0,0,95.18,123Z"/><path class="cls-24" d="M104,118.36l-.07,0h0c-1.72,6.29-8,28.41-15.9,40l-.34,1.72-.16.8.07,0,.08-.08,0,0a0,0,0,0,1,0,0c9.22-12,16.62-39.41,17.63-43.3h0Z"/><path class="cls-24" d="M85.9,158.37l.72,2.28C79.91,155,68.37,129.9,65,122.49c.53.28,1.06.56,1.6.8C70.25,131.22,79.69,151.31,85.9,158.37Z"/><path class="cls-22" d="M78.54,135a40.17,40.17,0,0,0,3.53,2.63c1.61.65.9-.7,3.29-.09s2.19-.49,4.2-1.07a17.78,17.78,0,0,0,3.35-1.11l.56-3.88a19.63,19.63,0,0,1-7.34,3.95,8,8,0,0,1-8.57-3.53h0Z"/><path class="cls-45" d="M93.18,132.88l-.7,3.46-4.46,22-.34,1.72-.16.8-.33,1.58-.58-1.85-.72-2.28-7-22.39-.95-3h0a7.42,7.42,0,0,0,8.27,3.53A17.24,17.24,0,0,0,93.18,132.88Z"/><path class="cls-22" d="M95.18,123l-2,9.9-6,29.61-.58-1.85,6.33-36.86a.84.84,0,0,1,0-.18A16,16,0,0,0,95.18,123Z"/><path class="cls-22" d="M167.15,104.26c-9,6.53-28.17,21.49-36.07,30s-12,12.32-12,19.21a85.8,85.8,0,0,0,1.17,13.14h0c-12-23.41,7.11-36.16,21.71-45.34a41.79,41.79,0,0,0,17.95-23.48c2.24,5.78,3.61,7.8,7.23,6.43A0,0,0,1,1,167.15,104.26Z"/><path class="cls-4" d="M102.56,99.48c.84,2.75-1.23,6.61-3.37,7.27s-4.69.09-4.11-3.29c.49-2.83.21-5.51,2.36-6.16S101.72,96.73,102.56,99.48Z"/><path class="cls-4" d="M62.2,104.78c-.14,2.87,2.82,6.1,5.06,6.21s4.57-1.07,3.17-4.2c-1.17-2.62-1.56-5.28-3.8-5.39S62.34,101.91,62.2,104.78Z"/><path class="cls-4" d="M97.44,98.21c1.41,11.27.53,20.27-12.58,22.3-14.21,2.2-16.27-7.24-17.68-18.51S71.4,80.75,79.76,79.7,96,86.94,97.44,98.21Z"/><path class="cls-50" d="M80.69,100.33s.46,4.11-1,6.21a17.66,17.66,0,0,0,2,1"/><ellipse class="cls-35" cx="87.08" cy="99.35" rx="1.08" ry="1.52" transform="translate(-3.74 3.4) rotate(-2.19)"/><path class="cls-51" d="M84.14,95.07s4.48-2.15,7.6-.62A6.55,6.55,0,0,0,84.14,95.07Z"/><path class="cls-21" d="M82.09,109.19a20,20,0,0,1-4.6.25,4.66,4.66,0,0,0,.05.9,4.86,4.86,0,0,0,9.59-1.55,4.65,4.65,0,0,0-.27-1A19.23,19.23,0,0,1,82.09,109.19Z"/><ellipse class="cls-4" cx="89.49" cy="103.76" rx="3.41" ry="2.13" transform="translate(-18.79 19.8) rotate(-11.43)"/><ellipse class="cls-35" cx="75.57" cy="100.8" rx="1.08" ry="1.52" transform="translate(-19.41 18.03) rotate(-12.07)"/><path class="cls-52" d="M77.37,96.08s-4.93-.49-7.34,2A6.53,6.53,0,0,1,77.37,96.08Z"/><ellipse class="cls-4" cx="74.32" cy="105.66" rx="3.41" ry="2.13" transform="translate(-5.13 3.8) rotate(-2.83)"/><path class="cls-53" d="M98.18,97c-.78-.12-1.94,1.65-2.32,2.52l-.61-4.68a5.94,5.94,0,0,0-1.12-2.77l-3.46-4.67a9.18,9.18,0,0,0,1.65-2.63,10.24,10.24,0,0,0,.8-4.38c2,1.42,4,2.48,5,4.66C100.22,89.78,99,94.52,98.18,97Z"/><path class="cls-53" d="M75.4,82.06a5.57,5.57,0,0,0,2.2,7.51,8.23,8.23,0,0,0,4.27.95,13.71,13.71,0,0,0,5.58-1.08c4.8-2.08,6.84-8.15,4.78-12.88a8.87,8.87,0,0,0-1.19-1.9,4.85,4.85,0,0,1-.88,2.82,7,7,0,0,0-.81-4.22,9.34,9.34,0,0,1-6.65,4.32c.64-.55.67-2,.54-2.82-.22.77-4.38,2.51-5.49,2.84Z"/><path class="cls-54" d="M73.09,84.43a6.59,6.59,0,0,0,.78,2.72,3.75,3.75,0,0,0,.88,1A7.84,7.84,0,0,0,76,89a3.23,3.23,0,0,1-1.45-.46,3.32,3.32,0,0,1-.63-.48,3.88,3.88,0,0,1-.48-.63,3.64,3.64,0,0,1-.48-1.49A3.47,3.47,0,0,1,73.09,84.43Z"/><path class="cls-54" d="M75.12,82.88a6.06,6.06,0,0,0-.15,3,5.07,5.07,0,0,0,.52,1.38c.1.23.26.43.39.65s.31.41.45.65a5.68,5.68,0,0,1-.66-.47,4.15,4.15,0,0,1-.55-.6,3.81,3.81,0,0,1-.7-3.15A3.4,3.4,0,0,1,75.12,82.88Z"/><path class="cls-53" d="M93,80.36a7.88,7.88,0,0,0-3.15-1.43,89,89,0,0,0-12.12-1.33A14.26,14.26,0,0,0,74,78a13.77,13.77,0,0,0-7.93,5.88,12,12,0,0,1-2.16,2.87s.3.24,1.36-.42a15.31,15.31,0,0,0-2.16,5.94c-.12,3.66,1.27,7.6,1.75,9.28a7.22,7.22,0,0,1,1.78-.11,2.37,2.37,0,0,1,1.88,1.07c-.34-2.56-1.11-8.35-.26-10.42,2.24,0,4.6.42,7.7-3.06l.38-.45h0c.36-.43.73-.91,1.1-1.46,3.6,0,6.66,0,8.9.06H87l3.13,0h.37l.16.22h0a9.18,9.18,0,0,0,1.65-2.63,10.24,10.24,0,0,0,.8-4.38Z"/><path class="cls-55" d="M93.12,80.42a10.24,10.24,0,0,1-.8,4.38,9.18,9.18,0,0,1-1.65,2.63h0a8.58,8.58,0,0,1-1,1,9.67,9.67,0,0,1-4.09,1.88,14.38,14.38,0,0,1-2.22.29H82.2l-1.11-.08,1.1-.06,1.1-.12a14.6,14.6,0,0,0,2.15-.43A10.55,10.55,0,0,0,89.29,88a8.23,8.23,0,0,0,.86-.77,10.07,10.07,0,0,0,1.79-2.59,10.91,10.91,0,0,0,.76-2A10.8,10.8,0,0,0,93,81.37C93,81.06,93.09,80.74,93.12,80.42Z"/><path class="cls-55" d="M89.08,82.86a10.61,10.61,0,0,1-1.19,3,10.45,10.45,0,0,1-2.06,2.56A7.75,7.75,0,0,1,83,90.07a7.53,7.53,0,0,1-3.24.27l.8-.09a3.64,3.64,0,0,0,.79-.13l.77-.18.74-.27A8.76,8.76,0,0,0,85.47,88a12.91,12.91,0,0,0,2.06-2.37A18,18,0,0,0,89.08,82.86Z"/><path class="cls-37" d="M109.2,11.63s.24.62,1.47,3.38l0,0,.57,1.27c.7,1.56,1.64,3.61,2.87,6.32C109.34,37,99,39.49,91.38,39.14A31.34,31.34,0,0,1,82,37.27l-2.73-5.49h0L77,27.2l22.7-11,9-4.35Z"/><path class="cls-38" d="M108.68,11.88a15.46,15.46,0,0,1,2,3.13l0,0c.2.4.39.82.57,1.27-8.54,20-32,15.46-32,15.46h0L77,27.2Z"/><path class="cls-22" d="M109.2,11.63s.24.62,1.47,3.38l0,0,.57,1.27c.7,1.56,1.64,3.61,2.87,6.32C109.34,37,99,39.49,91.38,39.14c10.07-3,5.24-13.06,5.24-13.06s1.42-4.8,3.07-9.85l9-4.35Z"/><polygon class="cls-37" points="123.35 0 96.62 26.08 72.7 27.45 58.62 28.25 85.52 1.3 123.35 0"/><path class="cls-22" d="M123.35,0,96.62,26.08,72.7,27.45C108,16.35,85.52,1.3,85.52,1.3Z"/><polyline class="cls-39" points="90.64 12.74 73.93 27.7 71.81 31.9"/><path class="cls-40" d="M70.42,33.83,63.09,44.44a1.18,1.18,0,0,0,.53,1.76l1.77.72a1.18,1.18,0,0,0,1.55-.7l4.7-13.48-1,.87A1.18,1.18,0,0,0,70.42,33.83Z"/><g class="cls-41"><path class="cls-42" d="M64.56,46.58c1-2.14,2-4.26,3.08-6.37q.74-1.5,1.5-3c.7-1.37,1.4-2.74,2.09-4.11l.23.13.23.13v0l-.56.85h0L69.42,36.8l-.27.41c-.67,1-1.33,2-2,3l-2.31,3.41-1.6,2.3-.06-.08c.48-.79,1-1.58,1.44-2.36L66.8,40c.72-1.17,1.48-2.31,2.22-3.47l2.23-3.46.23.13.23.13v0l-.79,1.52h0c-.95,1.83-1.9,3.66-2.87,5.47-1.11,2.08-2.22,4.16-3.38,6.21Z"/></g><circle class="cls-24" cx="71.64" cy="32.73" r="1.5" transform="translate(25.38 96.47) rotate(-78.59)"/><circle class="cls-43" cx="71.64" cy="32.73" r="1.5" transform="translate(25.38 96.47) rotate(-78.59)"/><ellipse class="cls-44" cx="90.64" cy="12.74" rx="1.76" ry="1.26" transform="translate(-0.08 0.58) rotate(-0.37)"/><path class="cls-23" d="M86.48,164.54c-.38,29.16-1.52,59.62,7.19,87.8.19.62.88.13.73-.36-8.69-28.11-7.54-58.47-7.16-87.55,0-.66-.75-.45-.75.11Z"/><path class="cls-22" d="M21.08,103.41c-.88,2.53-1.46,5.19-2.22,7.76a16.1,16.1,0,0,1-.78,2.17c-.39.85-.9,1.77-1.83,2-3.25.79-4.53-.67-4.75-.95.18.38.88,1.28,1.1,1.63a30.57,30.57,0,0,0,3.62,4.63,37.77,37.77,0,0,0,7.26,6c8.4,5.39,28,25.61,29.91,30.73,3.56,9.31,3.47,19.34,1.88,29-1.74,18.6-5.1,60.77-1.93,80.17,0,0,1.64.24,2.83.38s2.56.22,4.19.32c-1.15-5.15-2.66-13.38-4.18-25.86-3.1-25.55,10.45-68.9,5-86.71s-31.74-31-36.64-39.15.1-18.9.1-18.9A35.52,35.52,0,0,0,21.08,103.41Z"/><path class="cls-34" d="M80.09,120.83s5.52,1.23,9.49-1.53"/><path class="cls-33" d="M101.8,100.52C99.42,97.45,96,103,98.35,103.8c.79.28,2.28-1.12,1.3-1.67-.46-.26-1,.19-1.27.53a3.61,3.61,0,0,0-.44,2.44c0,.3.36.21.34-.05s0-.49,0-.74.07-1.23.36-1.37l.68.18-1.35-1.07c-.06-.36.36-.94.57-1.18a1.92,1.92,0,0,1,3,0c.16.2.38-.18.25-.35Z"/><path class="cls-33" d="M63.49,105.32c.5-1.67,2.62-1.52,3.55-.38.47.57.43.5-.21,1.1s-.74.75-.38.07l.5.2a3.18,3.18,0,0,1,1.1,1.86c.09.28.4.06.33-.16a4,4,0,0,0-1-1.93c-.4-.34-1.15-.67-1.59-.19-.8.88,1.07,1.7,1.75,1.07,1-1-.14-2.55-1.06-3a2.26,2.26,0,0,0-3.31,1.34c-.08.27.25.34.33.07Z"/><path class="cls-33" d="M20.69,61.7a11.77,11.77,0,0,1-1.88-4.81c-.05-.32-.4-.07-.36.18a12.29,12.29,0,0,0,2,5c.16.23.4-.19.27-.38Z"/><path class="cls-33" d="M23,60.36a10.19,10.19,0,0,1-1.34-4.58c0-.33-.39-.23-.38.06a10.7,10.7,0,0,0,1.39,4.81c.15.27.45-.08.33-.29Z"/><path class="cls-33" d="M24.78,59.27a11.37,11.37,0,0,0-1.14-4.89c-.13-.28-.43.08-.33.29a10.79,10.79,0,0,1,1.09,4.66c0,.33.38.23.38-.06Z"/></g></g></g></svg>